<svg width="23" height="20" viewBox="0 0 23 20" fill="none" xmlns="http://www.w3.org/2000/svg">
<path d="M15.5294 1.2987V0H13.9412V1.2987H8.55884V0H6.97061V1.2987H0V20H16.7407L22.5 14.3487V1.2987H15.5294ZM6.97061 2.85714V4.15584H8.55884V2.85714H13.9412V3.8961H15.5294V2.85714H20.9118V5.45455H1.58824V2.85714H6.97061ZM1.58824 7.01299H20.9118V13.2468H15.6176V18.4416H1.58824V7.01299ZM19.7887 14.8052L17.2059 17.3396V14.8052H19.7887Z" fill="#282E42"/>
<path d="M7.80868 13.7666H5.16162V16.364H7.80868V13.7666Z" fill="#282E42"/>
<path d="M12.5733 13.7666H9.92627V16.364H12.5733V13.7666Z" fill="#282E42"/>
<path d="M12.5733 9.09082H9.92627V11.6882H12.5733V9.09082Z" fill="#282E42"/>
<path d="M17.3385 9.09082H14.6914V11.6882H17.3385V9.09082Z" fill="#282E42"/>
<path d="M7.80868 9.09082H5.16162V11.6882H7.80868V9.09082Z" fill="#282E42"/>
</svg>
