<svg width="12" height="10" viewBox="0 0 12 10" fill="none" xmlns="http://www.w3.org/2000/svg">
<path d="M11.476 0.0765961C10.9345 -0.19847 10.3305 0.332014 9.97642 0.646375C9.16421 1.39298 8.47692 2.25748 7.70629 3.04338C6.85238 3.90787 6.06096 4.77236 5.18623 5.61724C4.68638 6.08878 4.14488 6.59962 3.81165 7.18904C3.06188 6.50135 2.41625 5.75474 1.58317 5.1457C0.979187 4.71345 -0.0205066 4.39909 0.000320301 5.44041C0.0419742 6.79613 1.31242 8.25004 2.24963 9.17345C2.64534 9.5664 3.16602 9.979 3.77 9.99864C4.49894 10.0379 5.24871 9.21274 5.68607 8.76085C6.45671 7.97495 7.08151 7.09078 7.7896 6.28526C8.70598 5.22429 9.64319 4.18294 10.5388 3.10232C11.1011 2.4343 12.8714 0.783876 11.476 0.0765961ZM0.916672 5.36182C0.895845 5.36182 0.875018 5.36182 0.833364 5.38144C0.750056 5.36182 0.687575 5.34214 0.604268 5.30285C0.666748 5.26355 0.770883 5.2832 0.916672 5.36182Z" fill="#1C2547"/>
</svg>
