<svg width="6" height="8" viewBox="0 0 6 8" fill="none" xmlns="http://www.w3.org/2000/svg">
<path d="M0.484619 7.82235C0.484619 7.92048 0.564166 8.00003 0.662298 8.00003H5.17242C5.27055 8.00003 5.35009 7.92048 5.35009 7.82235V2.06543H0.484619V7.82235ZM3.9168 3.04514H4.5831V6.9188H3.9168V3.04514ZM2.58421 3.04514H3.2505V6.9188H2.58421V3.04514ZM1.25162 3.04514H1.91791V6.9188H1.25162V3.04514Z" fill="#282E42"/>
<path d="M4.41489 0.816533V0.177679C4.41489 0.0795469 4.33534 0 4.23721 0H1.59734C1.49921 0 1.41966 0.0795469 1.41966 0.177679V0.816533V0.927583V1.03863H0.177679C0.0795469 1.03863 0 1.11818 0 1.21631V1.66563C0 1.76375 0.0795469 1.8433 0.177679 1.8433H0.48454H5.35001H5.65688C5.75501 1.8433 5.83455 1.76375 5.83455 1.66563V1.21631C5.83455 1.11818 5.75501 1.03863 5.65688 1.03863H4.41489V0.927583V0.816533ZM3.74859 1.0021H2.08596V0.927574V0.816524V0.666297H3.74859V0.816533V0.927583V1.0021Z" fill="#282E42"/>
</svg>
