<svg width="20" height="16" viewBox="0 0 20 16" fill="none" xmlns="http://www.w3.org/2000/svg">
<path d="M17.5 0H2.5C1.11938 0 0 1.12195 0 2.50575V12.5287C0 13.9125 1.11938 15.0345 2.5 15.0345H17.5C18.8806 15.0345 20 13.9125 20 12.5287V2.50575C20 1.12195 18.8806 0 17.5 0ZM18.125 1.25287L10 7.51724L1.875 1.25287H18.125ZM1.25 12.5287V2.50575L6.875 6.8908L1.30938 12.8908C1.27438 12.7755 1.25 12.6559 1.25 12.5287ZM2.22186 13.7484L7.86248 7.72458L10 9.34329L12.0456 7.71393L17.7781 13.7478C17.6881 13.7685 2.31186 13.7685 2.22186 13.7484ZM18.6907 12.8914L13.125 6.8908L18.75 2.50575V12.5287C18.75 12.6559 18.7256 12.7755 18.6907 12.8914Z" fill="#282E42"/>
</svg>
