<svg width="22" height="14" viewBox="0 0 22 14" fill="none" xmlns="http://www.w3.org/2000/svg">
<path d="M21.9848 1.12727C21.9839 0.505331 21.4786 0 20.8579 0C20.8574 0 20.8569 0 20.8564 0L1.12535 0.0271603C0.824358 0.0275477 0.541494 0.145358 0.328927 0.358854C0.116404 0.572392 -0.000385762 0.856092 9.57323e-07 1.15753L0.0152549 12.264C0.0156416 12.5655 0.133247 12.8489 0.346373 13.0618C0.559111 13.2744 0.841631 13.3913 1.14211 13.3913C1.14263 13.3913 1.14319 13.3913 1.14362 13.3913L20.8746 13.3641C21.4959 13.3633 22.0007 12.8563 22 12.2338L21.9848 1.12727ZM19.62 1.13054L11.0009 7.13269L2.36501 1.1543L19.62 1.13054ZM14.6458 8.26547L19.7578 12.2369L2.22772 12.261L7.37092 8.26547C7.61678 8.0744 7.66156 7.71989 7.47086 7.47351C7.28012 7.22722 6.92623 7.18237 6.68028 7.37339L1.1413 11.6764L1.12755 1.66987L10.6814 8.28381C10.7778 8.35057 10.8898 8.38388 11.0017 8.38388C11.1142 8.38388 11.2267 8.35018 11.3234 8.2829L20.8587 1.64284L20.8731 11.6748L15.3363 7.37344C15.0906 7.18245 14.7365 7.22726 14.5458 7.47356C14.3551 7.71985 14.3998 8.07444 14.6458 8.26547Z" fill="white"/>
</svg>
