<svg width="22" height="13" viewBox="0 0 22 13" fill="none" xmlns="http://www.w3.org/2000/svg">
<ellipse cx="11" cy="5" rx="6" ry="5" fill="#898989"/>
<path d="M21.8357 4.62944C21.6394 4.44063 16.916 0 11 0C5.08399 0 0.360701 4.44063 0.164291 4.62944C-0.0547636 4.84048 -0.0547636 5.15952 0.164291 5.37056C0.360701 5.55937 5.08408 10 11 10C16.916 10 21.6393 5.55937 21.8357 5.37056C22.0548 5.15952 22.0548 4.84048 21.8357 4.62944ZM11 8.88889C8.51251 8.88889 6.4883 7.14411 6.4883 5C6.4883 2.85589 8.51251 1.11111 11 1.11111C13.4875 1.11111 15.5117 2.85589 15.5117 5C15.5117 7.14411 13.4875 8.88889 11 8.88889Z" fill="#898989"/>
<path d="M19.9916 8.0515L20.1281 7.96917C20.3938 7.80121 20.4563 7.4696 20.2724 7.22835C20.0869 6.98495 19.722 6.93002 19.4618 7.09568C10.3581 12.9129 3.73118 7.38197 3.45278 7.1443C3.21786 6.94336 2.84766 6.95354 2.62889 7.16696C2.40903 7.38125 2.4197 7.71645 2.65228 7.91811C2.66483 7.92901 2.87214 8.10242 3.2505 8.35902L2.08434 10.1168C1.918 10.3675 2.00525 10.6948 2.27972 10.8481C2.37357 10.8997 2.48012 10.9257 2.58323 10.9257C2.77923 10.9257 2.97006 10.8346 3.08101 10.6707L4.22127 8.95339C4.86061 9.3091 5.68042 9.69751 6.65716 10.0257L6.09519 11.7428C6.00213 12.0255 6.17617 12.3204 6.4836 12.4045L6.6512 12.4271C6.89962 12.4271 7.13188 12.278 7.20752 12.0472L7.764 10.3536C8.66557 10.5789 9.67416 10.7311 10.7626 10.7672V12.468C10.7626 12.7623 11.0227 13 11.3447 13C11.6664 13 11.9266 12.7623 11.9266 12.468V10.7577C12.8763 10.7101 13.8829 10.5608 14.9339 10.2869L15.6503 12.0135C15.7396 12.2262 15.9608 12.3564 16.1945 12.3564L16.4004 12.3229C16.7009 12.2184 16.8533 11.9116 16.739 11.6371L16.0415 9.95482C16.9985 9.62995 17.9876 9.20224 19.0092 8.63483L19.9522 9.78529C20.0671 9.92427 20.2424 9.99886 20.4175 9.99886C20.5396 9.99886 20.6615 9.96501 20.7662 9.892C21.0242 9.71558 21.0763 9.38211 20.8842 9.14731L19.9916 8.0515Z" fill="#5D5D5D"/>
</svg>
