<svg width="22" height="12" viewBox="0 0 22 12" fill="none" xmlns="http://www.w3.org/2000/svg">
<path d="M21.8357 5.55533C21.6394 5.32876 16.916 0 11 0C5.08399 0 0.360701 5.32876 0.164291 5.55533C-0.0547636 5.80858 -0.0547636 6.19142 0.164291 6.44467C0.360701 6.67124 5.08408 12 11 12C16.916 12 21.6393 6.67124 21.8357 6.44467C22.0548 6.19142 22.0548 5.80858 21.8357 5.55533ZM11 10.6667C8.51251 10.6667 6.4883 8.57293 6.4883 6C6.4883 3.42707 8.51251 1.33333 11 1.33333C13.4875 1.33333 15.5117 3.42707 15.5117 6C15.5117 8.57293 13.4875 10.6667 11 10.6667Z" fill="#898989"/>
<path d="M11.6445 4.66663C11.6445 3.99596 11.9664 3.40596 12.4561 3.04307C12.0167 2.8104 11.5266 2.66663 11 2.66663C9.22311 2.66663 7.77734 4.16205 7.77734 5.99996C7.77734 7.83787 9.22311 9.33329 11 9.33329C12.5909 9.33329 13.9076 8.13178 14.1677 6.56183C12.8698 6.99405 11.6445 5.97871 11.6445 4.66663Z" fill="#898989"/>
</svg>
