<svg width="11" height="22" viewBox="0 0 11 22" fill="none" xmlns="http://www.w3.org/2000/svg">
<path d="M8.34822 4.78164H10.2579C10.6671 4.78164 11 4.43222 11 4.0027V0.781471C11 0.351956 10.6671 0.00253515 10.2579 0.00253515H7.63552C7.61039 0.00141797 7.56671 0 7.50551 0C7.01071 0 5.29005 0.10248 3.92495 1.42072C2.43491 2.85987 2.57748 4.58136 2.64019 5.00581V7.1044H0.742049C0.332915 7.1044 0 7.45382 0 7.88333V11.3479C0 11.7774 0.332874 12.1269 0.742049 12.1269H2.53037V21.2211C2.53037 21.6505 2.86324 22 3.27242 22H7.01247C7.4216 22 7.75452 21.6505 7.75452 21.2211V12.1718H9.8728C10.25 12.1718 10.5669 11.8752 10.61 11.4819L10.9951 7.97254C11.0193 7.75206 10.9526 7.5306 10.8119 7.36496C10.6712 7.1994 10.4693 7.10444 10.258 7.10444H7.75468V5.34285C7.7546 4.97887 7.8492 4.78164 8.34822 4.78164ZM7.33715 7.98096H10.1537L9.78995 11.2953H7.33703C7.10649 11.2953 6.91955 11.4915 6.91955 11.7335V21.1235H3.3653V11.6886C3.3653 11.4466 3.17835 11.2504 2.94781 11.2504H0.834928V7.98087H3.05768C3.28822 7.98087 3.47516 7.78468 3.47516 7.54263V4.97019C3.47516 4.94505 3.47312 4.91991 3.46902 4.89512C3.42502 4.62979 3.26771 3.24663 4.49032 2.06576C5.63299 0.962283 7.08713 0.876518 7.50556 0.876518C7.56421 0.876518 7.59913 0.878151 7.60552 0.878494C7.61239 0.878838 7.61927 0.87901 7.62615 0.87901H10.1651V3.90521H8.34826C7.45369 3.90521 6.91963 4.44266 6.91963 5.34285V7.54268C6.91963 7.78476 7.10661 7.98096 7.33715 7.98096Z" fill="white"/>
<path d="M4.20582 14.7689C3.97528 14.7689 3.78833 14.9651 3.78833 15.2072V15.4263C3.78833 15.6683 3.97528 15.8645 4.20582 15.8645C4.43635 15.8645 4.6233 15.6683 4.6233 15.4263V15.2072C4.6233 14.9651 4.43631 14.7689 4.20582 14.7689Z" fill="white"/>
<path d="M4.20582 16.3904C3.97528 16.3904 3.78833 16.5866 3.78833 16.8286V20.1593C3.78833 20.4013 3.97528 20.5975 4.20582 20.5975C4.43635 20.5975 4.6233 20.4013 4.6233 20.1593V16.8286C4.6233 16.5866 4.43631 16.3904 4.20582 16.3904Z" fill="white"/>
</svg>
