<svg width="165" height="36" viewBox="0 0 165 36" fill="none" xmlns="http://www.w3.org/2000/svg">
<rect width="165" height="36" rx="6" fill="#385C8E"/>
<path d="M62.7825 15.256H59.2185V17.008H62.5065V18.7H59.2185V22H57.1905V13.504H62.7825V15.256ZM71.5 22H69.22L68.56 20.332H65.272L64.648 22H62.416L65.98 13.504H67.972L71.5 22ZM67.996 18.688L66.94 15.772L65.86 18.688H67.996ZM79.4672 20.824C78.6592 21.76 77.5592 22.228 76.1672 22.228C74.8472 22.228 73.7552 21.812 72.8912 20.98C72.0272 20.14 71.5952 19.06 71.5952 17.74C71.5952 16.404 72.0312 15.328 72.9032 14.512C73.7832 13.688 74.8832 13.276 76.2032 13.276C76.8192 13.276 77.4152 13.388 77.9912 13.612C78.5752 13.828 79.0392 14.132 79.3832 14.524L77.9912 15.916C77.8072 15.66 77.5592 15.468 77.2472 15.34C76.9432 15.204 76.6192 15.136 76.2752 15.136C75.5632 15.136 74.9752 15.384 74.5112 15.88C74.0552 16.368 73.8272 16.988 73.8272 17.74C73.8272 18.508 74.0512 19.136 74.4992 19.624C74.9472 20.104 75.5272 20.344 76.2392 20.344C77.0312 20.344 77.6312 20.056 78.0392 19.48L79.4672 20.824ZM86.2747 22H80.3467V13.504H86.0587V15.244H82.3267V16.84H85.8547V18.484H82.3267V20.248H86.2747V22ZM94.2598 19.528C94.2598 19.968 94.1678 20.356 93.9838 20.692C93.8078 21.02 93.5598 21.276 93.2398 21.46C92.9278 21.644 92.5838 21.78 92.2078 21.868C91.8398 21.956 91.4438 22 91.0198 22H87.6358V13.504H91.0198C91.3798 13.504 91.7158 13.54 92.0278 13.612C92.3478 13.676 92.6558 13.788 92.9518 13.948C93.2478 14.1 93.4798 14.328 93.6478 14.632C93.8238 14.928 93.9118 15.28 93.9118 15.688C93.9118 16.144 93.7878 16.528 93.5398 16.84C93.2918 17.152 92.9518 17.38 92.5198 17.524V17.548C93.0318 17.636 93.4478 17.856 93.7678 18.208C94.0958 18.552 94.2598 18.992 94.2598 19.528ZM91.9318 15.964C91.9318 15.412 91.4958 15.136 90.6238 15.136H89.6158V16.888H90.7198C91.1038 16.888 91.3998 16.808 91.6078 16.648C91.8238 16.488 91.9318 16.26 91.9318 15.964ZM92.2078 19.336C92.2078 18.712 91.7238 18.4 90.7558 18.4H89.6158V20.344H90.7678C91.7278 20.344 92.2078 20.008 92.2078 19.336ZM104.472 17.716C104.472 19.052 104.036 20.14 103.164 20.98C102.292 21.812 101.184 22.228 99.8402 22.228C98.5042 22.228 97.4002 21.812 96.5282 20.98C95.6562 20.14 95.2202 19.052 95.2202 17.716C95.2202 16.372 95.6522 15.296 96.5162 14.488C97.3882 13.68 98.4962 13.276 99.8402 13.276C101.192 13.276 102.3 13.68 103.164 14.488C104.036 15.296 104.472 16.372 104.472 17.716ZM102.276 17.716C102.276 16.964 102.048 16.344 101.592 15.856C101.136 15.368 100.552 15.124 99.8402 15.124C99.1282 15.124 98.5442 15.368 98.0882 15.856C97.6402 16.344 97.4162 16.964 97.4162 17.716C97.4162 18.484 97.6402 19.116 98.0882 19.612C98.5442 20.108 99.1282 20.356 99.8402 20.356C100.552 20.356 101.136 20.108 101.592 19.612C102.048 19.116 102.276 18.484 102.276 17.716ZM114.679 17.716C114.679 19.052 114.243 20.14 113.371 20.98C112.499 21.812 111.391 22.228 110.047 22.228C108.711 22.228 107.607 21.812 106.735 20.98C105.863 20.14 105.427 19.052 105.427 17.716C105.427 16.372 105.859 15.296 106.723 14.488C107.595 13.68 108.703 13.276 110.047 13.276C111.399 13.276 112.507 13.68 113.371 14.488C114.243 15.296 114.679 16.372 114.679 17.716ZM112.483 17.716C112.483 16.964 112.255 16.344 111.799 15.856C111.343 15.368 110.759 15.124 110.047 15.124C109.335 15.124 108.751 15.368 108.295 15.856C107.847 16.344 107.623 16.964 107.623 17.716C107.623 18.484 107.847 19.116 108.295 19.612C108.751 20.108 109.335 20.356 110.047 20.356C110.759 20.356 111.343 20.108 111.799 19.612C112.255 19.116 112.483 18.484 112.483 17.716ZM123.902 22H121.226L118.07 18.088H118.046V22H116.03V13.504H118.046V16.96H118.082L121.118 13.504H123.686L120.026 17.416L123.902 22Z" fill="white"/>
<path d="M16.2235 18.4564H17.7425V24.7742C17.7425 24.8989 17.8425 25 17.966 25H20.5415C20.665 25 20.765 24.8989 20.765 24.7742V18.4862H22.5112C22.6248 18.4862 22.7203 18.4001 22.7333 18.2862L22.9985 15.9603C23.0058 15.8963 22.9857 15.8322 22.9433 15.7842C22.9009 15.7361 22.8402 15.7086 22.7765 15.7086H20.7651V14.2506C20.7651 13.8111 20.9993 13.5882 21.4614 13.5882C21.5272 13.5882 22.7765 13.5882 22.7765 13.5882C22.9 13.5882 23 13.4871 23 13.3624V11.2275C23 11.1027 22.9 11.0017 22.7765 11.0017H20.9641C20.9513 11.001 20.9229 11 20.8811 11C20.5666 11 19.4735 11.0624 18.6101 11.8649C17.6534 12.7542 17.7864 13.819 17.8181 14.0036V15.7086H16.2235C16.1 15.7086 16 15.8096 16 15.9344V18.2306C16 18.3553 16.1001 18.4564 16.2235 18.4564Z" fill="white"/>
</svg>
