<svg width="165" height="36" viewBox="0 0 165 36" fill="none" xmlns="http://www.w3.org/2000/svg">
<rect width="165" height="36" rx="6" fill="#DB402C"/>
<path d="M72.1916 21.484C71.2556 21.972 70.1636 22.216 68.9156 22.216C67.5476 22.216 66.4276 21.804 65.5556 20.98C64.6836 20.148 64.2476 19.068 64.2476 17.74C64.2476 16.404 64.6836 15.328 65.5556 14.512C66.4356 13.688 67.5356 13.276 68.8556 13.276C69.5116 13.276 70.1316 13.38 70.7156 13.588C71.2996 13.788 71.7716 14.06 72.1316 14.404L70.8356 15.88C70.3796 15.352 69.7436 15.088 68.9276 15.088C68.2076 15.088 67.6116 15.34 67.1396 15.844C66.6676 16.348 66.4316 16.98 66.4316 17.74C66.4316 18.54 66.6596 19.188 67.1156 19.684C67.5716 20.172 68.2076 20.416 69.0236 20.416C69.5276 20.416 69.9556 20.34 70.3076 20.188V18.64H68.6876V16.984H72.1916V21.484ZM82.7222 17.716C82.7222 19.052 82.2862 20.14 81.4142 20.98C80.5422 21.812 79.4342 22.228 78.0902 22.228C76.7542 22.228 75.6502 21.812 74.7782 20.98C73.9062 20.14 73.4702 19.052 73.4702 17.716C73.4702 16.372 73.9022 15.296 74.7662 14.488C75.6382 13.68 76.7462 13.276 78.0902 13.276C79.4422 13.276 80.5502 13.68 81.4142 14.488C82.2862 15.296 82.7222 16.372 82.7222 17.716ZM80.5262 17.716C80.5262 16.964 80.2982 16.344 79.8422 15.856C79.3862 15.368 78.8022 15.124 78.0902 15.124C77.3782 15.124 76.7942 15.368 76.3382 15.856C75.8902 16.344 75.6662 16.964 75.6662 17.716C75.6662 18.484 75.8902 19.116 76.3382 19.612C76.7942 20.108 77.3782 20.356 78.0902 20.356C78.8022 20.356 79.3862 20.108 79.8422 19.612C80.2982 19.116 80.5262 18.484 80.5262 17.716ZM92.9293 17.716C92.9293 19.052 92.4933 20.14 91.6213 20.98C90.7493 21.812 89.6413 22.228 88.2973 22.228C86.9613 22.228 85.8573 21.812 84.9853 20.98C84.1133 20.14 83.6773 19.052 83.6773 17.716C83.6773 16.372 84.1093 15.296 84.9733 14.488C85.8453 13.68 86.9533 13.276 88.2973 13.276C89.6493 13.276 90.7573 13.68 91.6213 14.488C92.4933 15.296 92.9293 16.372 92.9293 17.716ZM90.7333 17.716C90.7333 16.964 90.5053 16.344 90.0493 15.856C89.5933 15.368 89.0093 15.124 88.2973 15.124C87.5853 15.124 87.0013 15.368 86.5453 15.856C86.0973 16.344 85.8733 16.964 85.8733 17.716C85.8733 18.484 86.0973 19.116 86.5453 19.612C87.0013 20.108 87.5853 20.356 88.2973 20.356C89.0093 20.356 89.5933 20.108 90.0493 19.612C90.5053 19.116 90.7333 18.484 90.7333 17.716ZM101.828 21.484C100.892 21.972 99.8003 22.216 98.5523 22.216C97.1843 22.216 96.0643 21.804 95.1923 20.98C94.3203 20.148 93.8843 19.068 93.8843 17.74C93.8843 16.404 94.3203 15.328 95.1923 14.512C96.0723 13.688 97.1723 13.276 98.4923 13.276C99.1483 13.276 99.7683 13.38 100.352 13.588C100.936 13.788 101.408 14.06 101.768 14.404L100.472 15.88C100.016 15.352 99.3803 15.088 98.5643 15.088C97.8443 15.088 97.2483 15.34 96.7763 15.844C96.3043 16.348 96.0683 16.98 96.0683 17.74C96.0683 18.54 96.2963 19.188 96.7523 19.684C97.2083 20.172 97.8443 20.416 98.6603 20.416C99.1643 20.416 99.5923 20.34 99.9443 20.188V18.64H98.3243V16.984H101.828V21.484ZM108.855 22H103.503V13.504H105.567V20.212H108.855V22ZM115.747 22H109.819V13.504H115.531V15.244H111.799V16.84H115.327V18.484H111.799V20.248H115.747V22Z" fill="white"/>
<path d="M21.5785 19.2378H24.5079C23.9937 20.6919 22.601 21.7345 20.9706 21.7225C18.9923 21.7079 17.3566 20.1249 17.2798 18.1476C17.1974 16.028 18.8975 14.2774 20.9986 14.2774C21.9593 14.2774 22.8359 14.6436 23.4969 15.2435C23.6534 15.3856 23.8917 15.3865 24.0457 15.2416L25.1216 14.2287C25.2899 14.0703 25.2905 13.8027 25.1228 13.6438C24.0746 12.6505 22.6685 12.0314 21.118 12.0011C17.8108 11.9365 15.0232 14.6487 15.0001 17.9572C14.9769 21.2906 17.6714 24 20.9986 24C24.1982 24 26.8121 21.4941 26.9872 18.3375C26.9918 18.2979 26.9949 16.9604 26.9949 16.9604H21.5785C21.3565 16.9604 21.1765 17.1404 21.1765 17.3624V18.8358C21.1765 19.0578 21.3565 19.2378 21.5785 19.2378Z" fill="white"/>
<path d="M31.9587 17.0942V15.6547C31.9587 15.4601 31.801 15.3023 31.6065 15.3023H30.3951C30.2006 15.3023 30.0429 15.4601 30.0429 15.6547V17.0942H28.6037C28.4092 17.0942 28.2515 17.2519 28.2515 17.4465V18.6581C28.2515 18.8527 28.4092 19.0104 28.6037 19.0104H30.0429V20.45C30.0429 20.6446 30.2006 20.8023 30.3951 20.8023H31.6065C31.801 20.8023 31.9587 20.6446 31.9587 20.45V19.0104H33.3979C33.5924 19.0104 33.7501 18.8527 33.7501 18.6581V17.4465C33.7501 17.2519 33.5924 17.0942 33.3979 17.0942H31.9587Z" fill="white"/>
</svg>
