<svg width="16" height="16" viewBox="0 0 16 16" fill="none" xmlns="http://www.w3.org/2000/svg">
<path d="M14.9274 3.98429C14.212 2.75868 13.2416 1.78829 12.0159 1.07292C10.79 0.357591 9.45182 0 8.00025 0C6.54883 0 5.21022 0.357591 3.98457 1.07292C2.75884 1.78818 1.78844 2.75857 1.07303 3.98429C0.357593 5.21009 0 6.54869 0 8C0 9.45138 0.357702 10.7898 1.07293 12.0156C1.78829 13.2412 2.75869 14.2116 3.98442 14.9271C5.21022 15.6424 6.54872 16 8.00011 16C9.4515 16 10.7901 15.6424 12.0159 14.9271C13.2415 14.2119 14.2119 13.2412 14.9272 12.0156C15.6424 10.7899 16 9.45131 16 8C16 6.54855 15.6424 5.2099 14.9274 3.98429ZM9.33369 13C9.33369 13.0971 9.30223 13.1771 9.23981 13.2395C9.17764 13.3019 9.0977 13.3331 9.00057 13.3331H7.00034C6.90314 13.3331 6.82324 13.3019 6.76074 13.2395C6.6982 13.177 6.66697 13.0971 6.66697 13V10.9998C6.66697 10.9027 6.69817 10.8227 6.76074 10.7603C6.82324 10.698 6.90314 10.6668 7.00034 10.6668H9.00057C9.0977 10.6668 9.17764 10.698 9.23981 10.7603C9.30223 10.8228 9.33369 10.9027 9.33369 10.9998V13ZM11.8701 6.84367C11.7832 7.10064 11.686 7.31083 11.5784 7.47396C11.4708 7.63715 11.3162 7.80386 11.1147 7.97391C10.9137 8.14404 10.7538 8.26565 10.6355 8.33869C10.5176 8.41148 10.3473 8.51065 10.1253 8.6355C9.89611 8.76732 9.70704 8.93928 9.55782 9.15118C9.40848 9.36294 9.33383 9.53475 9.33383 9.66657C9.33383 9.76399 9.30238 9.84385 9.23992 9.90631C9.17764 9.96874 9.09773 9.99994 9.00057 9.99994H7.00045C6.90325 9.99994 6.82335 9.96874 6.76085 9.90631C6.69827 9.84385 6.66715 9.76399 6.66715 9.66657V9.29154C6.66715 8.82628 6.84932 8.39032 7.21396 7.9842C7.57859 7.5779 7.97964 7.27756 8.41721 7.08309C8.75032 6.93036 8.98653 6.77406 9.12539 6.61437C9.26447 6.45467 9.3339 6.24265 9.3339 5.9789C9.3339 5.74967 9.20358 5.54484 8.94311 5.36416C8.68264 5.18367 8.38598 5.09341 8.05254 5.09341C7.69133 5.09341 7.39281 5.17678 7.15664 5.34351C6.9274 5.51007 6.62888 5.82957 6.26078 6.30172C6.19828 6.38513 6.11144 6.4269 6.00031 6.4269C5.91698 6.4269 5.85098 6.40611 5.80241 6.36455L4.4275 5.32283C4.2678 5.19779 4.24004 5.05203 4.34409 4.88533C5.2331 3.40615 6.52125 2.66656 8.2087 2.66656C8.813 2.66656 9.40337 2.80896 9.97973 3.09373C10.5561 3.37835 11.037 3.78118 11.4226 4.30208C11.8076 4.8228 12.0007 5.38886 12.0007 5.99999C12.0002 6.30552 11.9566 6.58664 11.8701 6.84367Z" fill="white"/>
</svg>
