<svg width="32" height="29" viewBox="0 0 32 29" fill="none" xmlns="http://www.w3.org/2000/svg">
<path d="M11.9163 8.85193C11.2144 8.73036 10.7097 8.42947 10.4302 7.92816C10.2468 7.60706 10.1571 7.1728 10.1571 6.62661H11.0009C11.0265 7.06177 11.0969 7.37983 11.2058 7.58025C11.4064 7.93978 11.7733 8.14145 12.3121 8.18614V5.58538C11.6218 5.45522 11.1119 5.23764 10.7814 4.93246C10.4517 4.62638 10.2874 4.20392 10.2874 3.66292C10.2874 3.17967 10.4646 2.74451 10.8185 2.35512C11.1749 1.96787 11.671 1.77049 12.31 1.76406V1.13063H12.7623V1.75476C13.3959 1.79964 13.8813 1.98521 14.2196 2.31382C14.5576 2.64242 14.7348 3.07544 14.7518 3.61536H13.9187C13.8974 3.37418 13.8312 3.16626 13.7224 2.99123C13.5218 2.67013 13.2039 2.50154 12.7644 2.48563V4.8091C13.5016 5.01613 14.003 5.21029 14.2664 5.3905C14.6974 5.68925 14.9107 6.13192 14.9107 6.71654C14.9107 7.56255 14.6356 8.16308 14.0862 8.5194C13.8611 8.66546 13.5336 8.76254 13.1592 8.83513C14.2569 8.87249 15.3493 9.04949 16.4032 9.36737C17.4017 8.37422 18.0183 7.00027 18.0183 5.48329C18.0183 2.4547 15.5626 0 12.534 0C9.50646 0 7.05176 2.4547 7.05176 5.48329C7.05176 7.04711 7.71004 8.45539 8.76075 9.4539C9.78268 9.11868 10.8452 8.91808 11.9163 8.85193Z" fill="#282E42"/>
<path d="M11.4641 4.34566C11.6741 4.52373 11.9581 4.64763 12.3144 4.71789V2.47559C11.893 2.49257 11.5942 2.61861 11.4172 2.8564C11.2392 3.09543 11.1494 3.34501 11.1494 3.60639C11.1494 3.92105 11.256 4.16742 11.4641 4.34566Z" fill="#282E42"/>
<path d="M14.0542 6.94984C14.0542 6.55187 13.9081 6.25009 13.6169 6.04305C13.4483 5.92255 13.1646 5.80831 12.7666 5.70068V8.20973C13.3106 8.18417 13.685 7.98572 13.8942 7.61349C14.0009 7.42237 14.0542 7.2005 14.0542 6.94984Z" fill="#282E42"/>
<path d="M31.3351 19.8826C32.005 19.186 32.0669 17.8899 31.956 16.1585C31.1687 16.1052 30.008 16.2365 29.5973 16.1585C28.601 14.1754 27.1682 12.6275 25.1286 11.6887C25.1969 10.3936 25.3729 9.20205 26.1229 8.58542C24.3009 8.46063 22.7614 9.69173 21.7779 10.8204C20.8967 9.90395 19.5899 9.17541 18.0549 8.6623L17.0991 10.3627C14.2572 9.38333 11.1358 9.39299 8.30993 10.3926L7.06256 8.71665C7.05934 8.71129 7.05398 8.70699 7.04969 8.7027C5.10077 9.34811 3.30524 10.3595 1.91323 11.8144C1.00555 11.7452 1.10996 9.90502 2.28778 10.2006C0.370688 8.8949 -0.685386 12.4738 1.16878 12.9315C-0.376985 15.1386 -0.523051 19.8815 1.54208 21.6214C1.84404 24.2361 2.30691 26.6908 3.57753 28.3356H7.7507C7.63967 27.4886 7.5299 26.5839 7.62591 25.5951C10.1594 26.17 13.17 26.3386 16.1911 26.0923C16.6582 26.8668 17.1086 27.6541 17.6664 28.3367H21.7959C21.6445 27.2433 21.4813 26.0966 21.7779 24.9752C22.7635 24.7834 27.8808 23.4831 31.3351 19.8826ZM25.6342 14.3428C26.2006 14.3428 26.6615 14.8026 26.6615 15.369C26.6615 15.9354 26.2006 16.3952 25.6342 16.3952C25.0689 16.3952 24.6091 15.9354 24.6091 15.369C24.6091 14.8026 25.0687 14.3428 25.6342 14.3428Z" fill="#282E42"/>
</svg>
