<svg width="32" height="21" viewBox="0 0 32 21" fill="none" xmlns="http://www.w3.org/2000/svg">
<path d="M26.4002 14.8262C24.9004 14.8262 23.6802 16.0467 23.6802 17.5462C23.6802 19.046 24.9004 20.2662 26.4002 20.2662C27.8997 20.2662 29.1202 19.046 29.1202 17.5462C29.1202 16.0467 27.8997 14.8262 26.4002 14.8262ZM26.4002 18.3462C25.9589 18.3462 25.6002 17.9874 25.6002 17.5462C25.6002 17.1049 25.9589 16.7462 26.4002 16.7462C26.8414 16.7462 27.2002 17.1049 27.2002 17.5462C27.2002 17.9874 26.8414 18.3462 26.4002 18.3462Z" fill="#282E42"/>
<path d="M26.1393 3.51953H21.4398C21.0862 3.51953 20.7998 3.80628 20.7998 4.15953V16.6396C20.7998 16.9928 21.0862 17.2796 21.4398 17.2796H22.1186C22.4354 17.2796 22.716 17.0514 22.7569 16.7372C23.0081 14.8127 24.5432 13.6191 26.4001 13.6191C28.2571 13.6191 29.7921 14.8127 30.0433 16.7372C30.0843 17.0514 30.3646 17.2796 30.6817 17.2796H31.3598C31.713 17.2796 31.9998 16.9928 31.9998 16.6396V10.3995C31.9998 10.2492 31.947 10.1039 31.8506 9.98898L26.6301 3.74897C26.5086 3.60371 26.3288 3.51953 26.1393 3.51953ZM22.0798 8.63954V5.43953C22.0798 5.08628 22.3662 4.79953 22.7198 4.79953H25.539C25.7288 4.79953 25.9089 4.88403 26.0305 5.02991L28.6971 8.22992C29.0443 8.64686 28.7479 9.27954 28.2053 9.27954H22.7198C22.3662 9.27954 22.0798 8.99316 22.0798 8.63954Z" fill="#282E42"/>
<path d="M0.640001 17.28H2.27875C2.59556 17.28 2.87619 17.0518 2.91713 16.7376C3.16832 14.8131 4.70338 13.6196 6.56032 13.6196C8.41727 13.6196 9.95233 14.8132 10.2035 16.7376C10.2445 17.0519 10.5248 17.28 10.8419 17.28H18.88C19.2333 17.28 19.52 16.9933 19.52 16.64V0.640001C19.52 0.286745 19.2333 0 18.88 0H0.640001C0.28638 0 0 0.286745 0 0.640001V16.64C0 16.9933 0.28638 17.28 0.640001 17.28Z" fill="#282E42"/>
<path d="M6.55985 14.8262C5.06003 14.8262 3.83984 16.0467 3.83984 17.5462C3.83984 19.046 5.06003 20.2662 6.55985 20.2662C8.05935 20.2662 9.27985 19.046 9.27985 17.5462C9.27985 16.0467 8.05935 14.8262 6.55985 14.8262ZM6.55985 18.3462C6.11859 18.3462 5.75985 17.9874 5.75985 17.5462C5.75985 17.1049 6.11859 16.7462 6.55985 16.7462C7.0011 16.7462 7.35985 17.1049 7.35985 17.5462C7.35985 17.9874 7.0011 18.3462 6.55985 18.3462Z" fill="#282E42"/>
</svg>
