<svg width="22" height="22" viewBox="0 0 22 22" fill="none" xmlns="http://www.w3.org/2000/svg">
<path d="M11.5905 13.2756L11.133 13.7331C10.988 13.8782 10.9335 14.0882 10.9822 14.2874C11.1764 15.0833 10.9877 15.0243 6.06885 19.9439C5.64218 20.3706 4.94784 20.3706 4.52108 19.9438L2.07496 17.4973C1.61296 17.0353 1.6408 16.3485 2.05734 15.9318C6.99552 10.993 6.91869 10.8167 7.72547 11.0223C7.92042 11.072 8.12693 11.0074 8.26915 10.8651L8.72466 10.4095C9.01436 10.1198 8.92163 9.62455 8.54316 9.46752C7.516 9.0413 6.28688 9.24513 5.4529 10.0792L0.829253 14.7035C-0.276418 15.8093 -0.276418 17.6022 0.829253 18.708L3.29295 21.1721C3.29295 21.1721 3.29295 21.1721 3.29299 21.1721C4.39686 22.2759 6.19308 22.2761 7.29694 21.1721L11.9207 16.5477C12.7547 15.7136 12.9585 14.4844 12.5323 13.457C12.3753 13.0786 11.8802 12.9859 11.5905 13.2756Z" fill="#898989"/>
<path d="M7.92014 14.0806C8.25924 14.4198 8.80907 14.4198 9.14827 14.0806L14.0805 9.14775C14.4197 8.80856 14.4197 8.25862 14.0805 7.91946C13.7414 7.58031 13.1915 7.58031 12.8524 7.91946L7.92014 12.8523C7.58098 13.1915 7.58098 13.7415 7.92014 14.0806Z" fill="#898989"/>
<path d="M21.1708 3.29205L18.707 0.827904C17.6031 -0.275932 15.8069 -0.276018 14.703 0.827947L10.0793 5.45228C9.24531 6.28641 9.04151 7.51564 9.46768 8.54298C9.62468 8.92141 10.1199 9.0142 10.4095 8.72446L10.867 8.26692C11.012 8.12192 11.0664 7.91191 11.0178 7.71272C10.8234 6.91602 11.0371 6.95083 15.9311 2.05624C16.3578 1.62942 17.0521 1.62955 17.4788 2.05624L19.925 4.50272C20.3871 4.96495 20.359 5.65172 19.9426 6.06823C15.0044 11.0071 15.0812 11.1833 14.2745 10.9777C14.0795 10.928 13.873 10.9926 13.7308 11.1348L13.2754 11.5903C12.9838 11.8819 13.0813 12.3777 13.4624 12.5349C14.4899 12.9587 15.7156 12.7522 16.5469 11.9208L21.1707 7.29647C22.2764 6.1907 22.2764 4.39782 21.1708 3.29205Z" fill="#898989"/>
</svg>
