<svg width="28" height="32" viewBox="0 0 28 32" fill="none" xmlns="http://www.w3.org/2000/svg">
<path d="M27.6523 29.4288C27.3512 23.7096 22.211 21.3437 22.211 21.3437C20.983 20.7695 18.7564 19.6454 17.2966 18.9023C19.1669 16.8561 19.7193 13.5199 19.8053 13.0452C20.1957 10.8972 19.9992 8.23857 19.9992 8.23857C19.6423 3.06862 14.4226 2.98742 13.876 2.99286C13.8458 2.99286 13.8262 2.99317 13.8262 2.99317C13.8262 2.99317 13.8095 2.99286 13.7848 2.99317C13.2892 2.98674 8.01199 3.03908 7.65314 8.23857C7.65314 8.23857 7.45669 10.8969 7.84702 13.0452C7.87238 13.1835 7.93852 13.569 8.06402 14.0902C9.04718 15.3809 10.565 16.0139 11.8108 16.3236C11.9675 16.1715 12.1809 16.0768 12.4174 16.0768H14.688C15.1686 16.0768 15.5576 16.4661 15.5576 16.9466C15.5576 17.4275 15.1686 17.8171 14.688 17.8171H12.4174C12.0589 17.8171 11.7524 17.6008 11.6185 17.2923C10.6893 17.0663 9.61403 16.6728 8.65429 15.9959C9.03719 16.9899 9.58287 18.0562 10.3564 18.9027C8.89659 19.6457 6.67097 20.7694 5.44194 21.3437C5.44194 21.3437 0.302477 23.7096 0.00072489 29.4288C0.00072489 29.4288 -0.0885303 30.3799 1.71378 30.74C1.71378 30.74 7.2352 32.0001 13.8268 32.0001C20.419 32.0001 25.9405 30.74 25.9405 30.74C27.7424 30.3799 27.6523 29.4288 27.6523 29.4288Z" fill="#282E42"/>
<path d="M5.88631 14.8991H6.43486V8.45609C6.43617 8.44004 6.43999 8.42462 6.43999 8.40825V7.45688C6.43999 5.76082 6.96349 4.38607 7.99607 3.37054C10.1319 1.26909 13.7801 1.2977 13.8417 1.30632C13.885 1.30313 17.5028 1.25111 19.6481 3.35093C20.6878 4.36845 21.2151 5.74958 21.2151 7.45688V8.46284C21.2151 8.47277 21.2177 8.48177 21.2177 8.49139V14.899H21.7662C23.1163 14.899 24.2105 13.8048 24.2105 12.4551V10.1062C24.2105 9.02033 23.5015 8.10106 22.5212 7.78294V7.45714C22.5212 5.38555 21.8616 3.69017 20.562 2.4178C18.0283 -0.0619933 13.981 0.0022158 13.8395 0.000281157C13.6694 -0.00133976 9.6183 -0.0510654 7.08579 2.43328C5.79068 3.70434 5.13363 5.3946 5.13363 7.45688V7.78137C4.15208 8.09944 3.44238 9.01939 3.44238 10.1059V12.4548C3.44244 13.8049 4.53692 14.8991 5.88631 14.8991Z" fill="#282E42"/>
</svg>
