<svg width="28" height="28" viewBox="0 0 28 28" fill="none" xmlns="http://www.w3.org/2000/svg">
<path d="M27.9117 12.4457C27.8675 12.0522 27.4084 11.7561 27.0115 11.7561C25.7287 11.7561 24.5902 11.0032 24.1127 9.83782C23.6253 8.64448 23.9398 7.25303 24.8956 6.37622C25.1966 6.10098 25.2333 5.64011 24.9809 5.32019C24.3241 4.48637 23.578 3.73306 22.763 3.08027C22.4442 2.82453 21.9757 2.86013 21.699 3.16636C20.8646 4.09052 19.3656 4.43393 18.2073 3.95066C17.0023 3.44366 16.2417 2.22222 16.3165 0.911182C16.341 0.499112 16.0398 0.141049 15.6291 0.0932181C14.5833 -0.0278719 13.5282 -0.0313836 12.4794 0.084984C12.0739 0.129787 11.7729 0.479374 11.7864 0.886237C11.8318 2.18444 11.0626 3.38433 9.86926 3.87317C8.72483 4.34069 7.23627 3.99983 6.40354 3.08378C6.1283 2.78202 5.66804 2.74497 5.34703 2.99526C4.50811 3.65363 3.74512 4.40742 3.08228 5.23446C2.82399 5.55595 2.86214 6.02191 3.16571 6.29812C4.14036 7.18074 4.45459 8.58418 3.94856 9.79144C3.46541 10.9424 2.27037 11.6838 0.902414 11.6838C0.458498 11.6695 0.142574 11.9678 0.0935323 12.3715C-0.0294952 13.4229 -0.0308272 14.4948 0.0875989 15.5548C0.131797 15.9501 0.604411 16.2436 1.0057 16.2436C2.22508 16.2126 3.39505 16.967 3.88656 18.1618C4.37564 19.3551 4.06081 20.746 3.10347 21.624C2.80401 21.8992 2.76575 22.359 3.01858 22.6786C3.66872 23.5072 4.4156 24.261 5.23296 24.9193C5.55385 25.1778 6.02053 25.1415 6.29867 24.8349C7.13637 23.9086 8.63511 23.5658 9.78873 24.05C10.9972 24.5557 11.7574 25.777 11.6832 27.0884C11.6588 27.5005 11.9608 27.8597 12.37 27.9064C12.9052 27.969 13.4432 28 13.9829 28C14.4951 28 15.0075 27.972 15.5198 27.915C15.9257 27.8702 16.2262 27.5202 16.2126 27.1133C16.1657 25.8157 16.9366 24.6157 18.1284 24.1278C19.2805 23.6572 20.7624 24.0016 21.5956 24.9163C21.8723 25.2175 22.3298 25.254 22.6521 25.0047C23.4896 24.348 24.2511 23.5946 24.9169 22.7654C25.1754 22.4445 25.1387 21.9779 24.8334 21.7013C23.859 20.8192 23.5431 19.4152 24.0491 18.2091C24.5248 17.0737 25.6754 16.3113 26.9129 16.3113L27.0861 16.3159C27.4879 16.3485 27.8571 16.0391 27.9056 15.6292C28.0293 14.5768 28.0306 13.5061 27.9117 12.4457ZM13.9998 22.0712C9.54207 22.0712 5.92862 18.4577 5.92862 14.0002C5.92862 9.5426 9.54219 5.92915 13.9998 5.92915C18.4573 5.92915 22.0709 9.5426 22.0709 14.0002C22.0709 15.5132 21.6537 16.9284 20.9293 18.1385L17.3951 14.6043C17.651 14.001 17.7861 13.347 17.786 12.6721C17.786 11.3504 17.2712 10.1079 16.3366 9.1734C15.4021 8.23895 14.1596 7.72431 12.8381 7.72431C12.3971 7.72431 11.9582 7.78292 11.5335 7.89856C11.3475 7.9493 11.1954 8.1026 11.1459 8.28896C11.0953 8.47955 11.1523 8.67487 11.3013 8.82393C11.3013 8.82393 13.0461 10.5822 13.6298 11.1658C13.691 11.227 13.6909 11.3729 13.6823 11.4254L13.6768 11.4638C13.618 12.1056 13.5045 12.876 13.4109 13.172C13.3983 13.1845 13.3864 13.195 13.3736 13.2079C13.3602 13.2213 13.3478 13.2343 13.3349 13.2476C13.0349 13.3439 12.2527 13.4587 11.6007 13.517L11.6008 13.5135L11.5715 13.5209C11.5663 13.5215 11.5566 13.5222 11.5438 13.5222C11.4733 13.5222 11.3697 13.5025 11.2755 13.4084C10.6678 12.8008 8.99147 11.1364 8.99147 11.1364C8.84108 10.9865 8.68681 10.955 8.58401 10.955C8.34437 10.955 8.1298 11.1282 8.06223 11.3765C7.60075 13.0842 8.08996 14.9212 9.33924 16.1706C10.2739 17.1052 11.5166 17.6198 12.8383 17.6198C13.5132 17.6198 14.1672 17.4848 14.7704 17.2289L18.3429 20.8014C17.0886 21.604 15.5992 22.0712 13.9998 22.0712Z" fill="#282E42"/>
</svg>
