<svg width="19" height="24" viewBox="0 0 19 24" fill="none" xmlns="http://www.w3.org/2000/svg">
<path d="M9.21014 6.59961C7.83854 6.59961 6.72266 7.71549 6.72266 9.08709C6.72266 10.4587 7.83854 11.5746 9.21014 11.5746C10.5817 11.5746 11.6976 10.4587 11.6976 9.08709C11.6976 7.71549 10.5818 6.59961 9.21014 6.59961Z" fill="#282E42"/>
<path d="M9.21032 0C4.13176 0 0 4.13171 0 9.21026C0 11.3622 0.741878 13.344 1.98324 14.9136L9.21032 24L16.4374 14.9136C17.6788 13.344 18.4206 11.3622 18.4206 9.21026C18.4206 4.13171 14.2889 0 9.21032 0ZM9.21032 13.2332C6.92432 13.2332 5.06451 11.3734 5.06451 9.08743C5.06451 6.80144 6.92432 4.94163 9.21032 4.94163C11.4963 4.94163 13.3561 6.80144 13.3561 9.08743C13.3561 11.3734 11.4964 13.2332 9.21032 13.2332Z" fill="#282E42"/>
</svg>
