<svg width="33" height="20" viewBox="0 0 33 20" fill="none" xmlns="http://www.w3.org/2000/svg">
<path d="M33 10C33 15.5026 28.5999 20 23.0999 20C17.6523 20 13.2 15.5026 13.2 10C13.2 4.49735 17.6 0 23.0476 0C28.5999 0 33 4.49735 33 10Z" fill="#FFB600"/>
<path d="M23.0999 0C28.5476 0 33 4.49735 33 10C33 15.5026 28.5999 20 23.0999 20C17.6523 20 13.2 15.5026 13.2 10" fill="#F7981D"/>
<path d="M23.1001 0C28.5477 0 33.0001 4.49735 33.0001 10C33.0001 15.5026 28.6001 20 23.1001 20" fill="#FF8500"/>
<path d="M9.79524 0C4.4 0.05291 0 4.49735 0 10C0 15.5026 4.4 20 9.9 20C12.4667 20 14.7714 18.9947 16.5524 17.4074C16.919 17.0899 17.2333 16.7196 17.5476 16.3492H15.5048C15.2429 16.0317 14.981 15.6614 14.7714 15.3439H18.281C18.4905 15.0265 18.7 14.6561 18.8571 14.2857H14.1952C14.0381 13.9683 13.881 13.5979 13.7762 13.2275H19.2238C19.5381 12.2222 19.7476 11.164 19.7476 10.0529C19.7476 9.31217 19.6429 8.62434 19.5381 7.93651H13.4619C13.5143 7.56614 13.619 7.24868 13.7238 6.87831H19.1714C19.0667 6.50794 18.9095 6.13757 18.7524 5.82011H14.1429C14.3 5.44974 14.5095 5.13227 14.719 4.7619H18.2286C18.019 4.39153 17.7571 4.02116 17.4429 3.7037H15.5048C15.819 3.33333 16.1333 3.01587 16.5 2.69841C14.7714 1.0582 12.4143 0.10582 9.84762 0.10582C9.84762 -1.02495e-07 9.84762 0 9.79524 0Z" fill="#FF5050"/>
<path d="M0 9.99965C0 15.5023 4.4 19.9997 9.9 19.9997C12.4667 19.9997 14.7714 18.9944 16.5524 17.4071C16.919 17.0896 17.2333 16.7192 17.5476 16.3489H15.5048C15.2429 16.0314 14.981 15.661 14.7714 15.3436H18.281C18.4905 15.0261 18.7 14.6557 18.8571 14.2854H14.1952C14.0381 13.9679 13.881 13.5975 13.7762 13.2272H19.2238C19.5381 12.2219 19.7476 11.1637 19.7476 10.0526C19.7476 9.31182 19.6429 8.62399 19.5381 7.93616H13.4619C13.5143 7.56579 13.619 7.24833 13.7238 6.87796H19.1714C19.0667 6.50759 18.9095 6.13722 18.7524 5.81975H14.1429C14.3 5.44938 14.5095 5.13192 14.719 4.76155H18.2286C18.019 4.39118 17.7571 4.02081 17.4429 3.70335H15.5048C15.819 3.33298 16.1333 3.01552 16.5 2.69806C14.7714 1.05785 12.4143 0.105469 9.84762 0.105469H9.79524" fill="#E52836"/>
<path d="M9.89993 19.9997C12.4666 19.9997 14.7714 18.9944 16.5523 17.4071C16.919 17.0896 17.2333 16.7192 17.5475 16.3489H15.5047C15.2428 16.0314 14.9809 15.661 14.7714 15.3436H18.2809C18.4904 15.0261 18.6999 14.6557 18.8571 14.2854H14.1952C14.038 13.9679 13.8809 13.5975 13.7761 13.2272H19.2237C19.538 12.2219 19.7475 11.1637 19.7475 10.0526C19.7475 9.31182 19.6428 8.62399 19.538 7.93616H13.4618C13.5142 7.56579 13.619 7.24833 13.7237 6.87796H19.1714C19.0666 6.50759 18.9095 6.13722 18.7523 5.81975H14.1428C14.2999 5.44938 14.5095 5.13192 14.719 4.76155H18.2285C18.019 4.39118 17.7571 4.02081 17.4428 3.70335H15.5047C15.819 3.33298 16.1333 3.01552 16.4999 2.69806C14.7714 1.05785 12.4142 0.105469 9.84755 0.105469H9.79517" fill="#CB2026"/>
<path d="M13.4089 12.5399L13.5661 11.6404C13.5137 11.6404 13.4089 11.6933 13.3042 11.6933C12.9375 11.6933 12.8851 11.4817 12.9375 11.3759L13.2518 9.524H13.828L13.9851 8.51871H13.4613L13.5661 7.88379H12.5185C12.5185 7.88379 11.8899 11.3759 11.8899 11.7991C11.8899 12.4341 12.2566 12.6986 12.728 12.6986C13.0423 12.6986 13.3042 12.5928 13.4089 12.5399Z" fill="white"/>
<path d="M13.7761 10.8466C13.7761 12.3281 14.7714 12.6985 15.6095 12.6985C16.3952 12.6985 16.7095 12.5398 16.7095 12.5398L16.919 11.5345C16.919 11.5345 16.3428 11.799 15.819 11.799C14.6666 11.799 14.8761 10.9525 14.8761 10.9525H17.0237C17.0237 10.9525 17.1809 10.2646 17.1809 10.0001C17.1809 9.31224 16.8142 8.46568 15.6618 8.46568C14.5618 8.35986 13.7761 9.52388 13.7761 10.8466ZM15.6095 9.31224C16.1856 9.31224 16.0809 10.0001 16.0809 10.053H14.9285C14.9285 10.0001 15.0333 9.31224 15.6095 9.31224Z" fill="white"/>
<path d="M22.2621 12.5395L22.4716 11.3755C22.4716 11.3755 21.9478 11.64 21.5811 11.64C20.8478 11.64 20.5335 11.058 20.5335 10.4231C20.5335 9.15326 21.1621 8.46543 21.8954 8.46543C22.4192 8.46543 22.8382 8.78289 22.8382 8.78289L22.9954 7.67178C22.9954 7.67178 22.3668 7.40723 21.7906 7.40723C20.5859 7.40723 19.3811 8.46543 19.3811 10.476C19.3811 11.7988 20.0097 12.6982 21.2668 12.6982C21.6859 12.6982 22.2621 12.5395 22.2621 12.5395Z" fill="white"/>
<path d="M7.64697 8.35938C6.91364 8.35938 6.38983 8.57101 6.38983 8.57101L6.23268 9.47049C6.23268 9.47049 6.70411 9.25885 7.38507 9.25885C7.75173 9.25885 8.06602 9.31176 8.06602 9.62922C8.06602 9.84086 8.01364 9.89377 8.01364 9.89377C8.01364 9.89377 7.69935 9.89377 7.54221 9.89377C6.65173 9.89377 5.65649 10.2641 5.65649 11.4811C5.65649 12.4334 6.28507 12.6451 6.65173 12.6451C7.38507 12.6451 7.69935 12.1689 7.75173 12.1689L7.69935 12.5922H8.64221L9.06126 9.68213C9.06126 8.41228 8.01364 8.35938 7.64697 8.35938ZM7.85649 10.7403C7.85649 10.8991 7.75173 11.7456 7.12316 11.7456C6.80888 11.7456 6.70411 11.4811 6.70411 11.3223C6.70411 11.0578 6.86126 10.6874 7.64697 10.6874C7.80411 10.7403 7.85649 10.7403 7.85649 10.7403Z" fill="white"/>
<path d="M10.0566 12.6453C10.3185 12.6453 11.628 12.6982 11.628 11.2697C11.628 9.94691 10.3709 10.2115 10.3709 9.68236C10.3709 9.41781 10.5804 9.31199 10.947 9.31199C11.1042 9.31199 11.6804 9.3649 11.6804 9.3649L11.8375 8.41252C11.8375 8.41252 11.4709 8.3067 10.8423 8.3067C10.0566 8.3067 9.27085 8.62416 9.27085 9.68236C9.27085 10.8993 10.5804 10.7935 10.5804 11.2697C10.5804 11.5871 10.2137 11.64 9.95181 11.64C9.48038 11.64 9.00895 11.4813 9.00895 11.4813L8.85181 12.4337C8.90419 12.5395 9.16609 12.6453 10.0566 12.6453Z" fill="white"/>
<path d="M30.9571 7.51361L30.7476 8.94218C30.7476 8.94218 30.3286 8.41308 29.7524 8.41308C28.8095 8.41308 27.9714 9.5771 27.9714 10.9528C27.9714 11.7993 28.3905 12.6988 29.281 12.6988C29.9095 12.6988 30.2762 12.2755 30.2762 12.2755L30.2238 12.6459H31.2714L32.0571 7.56652L30.9571 7.51361ZM30.4857 10.3178C30.4857 10.8999 30.2238 11.6406 29.6476 11.6406C29.281 11.6406 29.0714 11.3231 29.0714 10.794C29.0714 9.94747 29.4381 9.41837 29.9095 9.41837C30.2762 9.41837 30.4857 9.68292 30.4857 10.3178Z" fill="white"/>
<path d="M1.93787 12.593L2.56644 8.78345L2.6712 12.593H3.40453L4.76644 8.78345L4.19025 12.593H5.29025L6.12834 7.51361H4.39977L3.35215 10.6353L3.29977 7.51361H1.78072L0.942627 12.593H1.93787Z" fill="white"/>
<path d="M18.1756 12.5927C18.4899 10.8467 18.5422 9.41814 19.2756 9.68269C19.3803 8.99486 19.5375 8.73031 19.6422 8.46576C19.6422 8.46576 19.5899 8.46576 19.4327 8.46576C18.9613 8.46576 18.5946 9.10068 18.5946 9.10068L18.6994 8.51867H17.7041L17.0232 12.6457H18.1756V12.5927Z" fill="white"/>
<path d="M24.6711 8.35938C23.9378 8.35938 23.414 8.57101 23.414 8.57101L23.2569 9.47049C23.2569 9.47049 23.7283 9.25885 24.4092 9.25885C24.7759 9.25885 25.0902 9.31176 25.0902 9.62922C25.0902 9.84086 25.0378 9.89377 25.0378 9.89377C25.0378 9.89377 24.7235 9.89377 24.5664 9.89377C23.6759 9.89377 22.6807 10.2641 22.6807 11.4811C22.6807 12.4334 23.3092 12.6451 23.6759 12.6451C24.4092 12.6451 24.7235 12.1689 24.7759 12.1689L24.7235 12.5922H25.6664L26.0854 9.68213C26.1378 8.41228 25.0378 8.35938 24.6711 8.35938ZM24.933 10.7403C24.933 10.8991 24.8283 11.7456 24.1997 11.7456C23.8854 11.7456 23.7807 11.4811 23.7807 11.3223C23.7807 11.0578 23.9378 10.6874 24.7235 10.6874C24.8807 10.7403 24.8807 10.7403 24.933 10.7403Z" fill="white"/>
<path d="M26.9759 12.5927C27.2902 10.8467 27.3425 9.41814 28.0759 9.68269C28.1806 8.99486 28.3378 8.73031 28.4425 8.46576C28.4425 8.46576 28.3902 8.46576 28.233 8.46576C27.7616 8.46576 27.3949 9.10068 27.3949 9.10068L27.4997 8.51867H26.5044L25.8235 12.6457H26.9759V12.5927Z" fill="white"/>
<path d="M11.7852 11.7991C11.7852 12.4341 12.1518 12.6986 12.6233 12.6986C12.9899 12.6986 13.3042 12.5928 13.409 12.5399L13.5661 11.6404C13.5137 11.6404 13.409 11.6933 13.3042 11.6933C12.9375 11.6933 12.8852 11.4817 12.9375 11.3759L13.2518 9.524H13.828L13.9852 8.51871H13.4613L13.5661 7.88379" fill="#DCE5E5"/>
<path d="M14.2998 10.8466C14.2998 12.3281 14.7712 12.6985 15.6093 12.6985C16.395 12.6985 16.7093 12.5398 16.7093 12.5398L16.9189 11.5345C16.9189 11.5345 16.3427 11.799 15.8189 11.799C14.6665 11.799 14.876 10.9525 14.876 10.9525H17.0236C17.0236 10.9525 17.1808 10.2646 17.1808 10.0001C17.1808 9.31224 16.8141 8.46568 15.6617 8.46568C14.5617 8.35986 14.2998 9.52388 14.2998 10.8466ZM15.6093 9.31224C16.1855 9.31224 16.2903 10.0001 16.2903 10.053H14.9284C14.9284 10.0001 15.0331 9.31224 15.6093 9.31224Z" fill="#DCE5E5"/>
<path d="M22.2614 12.5395L22.471 11.3755C22.471 11.3755 21.9472 11.64 21.5805 11.64C20.8472 11.64 20.5329 11.058 20.5329 10.4231C20.5329 9.15326 21.1614 8.46543 21.8948 8.46543C22.4186 8.46543 22.8376 8.78289 22.8376 8.78289L22.9948 7.67178C22.9948 7.67178 22.3662 7.40723 21.79 7.40723C20.5852 7.40723 19.9043 8.46543 19.9043 10.476C19.9043 11.7988 20.0091 12.6982 21.2662 12.6982C21.6852 12.6982 22.2614 12.5395 22.2614 12.5395Z" fill="#DCE5E5"/>
<path d="M6.23268 9.52396C6.23268 9.52396 6.70411 9.31232 7.38507 9.31232C7.75173 9.31232 8.06602 9.36523 8.06602 9.68269C8.06602 9.89433 8.01364 9.94724 8.01364 9.94724C8.01364 9.94724 7.69935 9.94724 7.54221 9.94724C6.65173 9.94724 5.65649 10.3176 5.65649 11.5345C5.65649 12.4869 6.28507 12.6986 6.65173 12.6986C7.38507 12.6986 7.69935 12.2224 7.75173 12.2224L7.69935 12.6457H8.64221L9.06126 9.7356C9.06126 8.51867 8.01364 8.46576 7.59459 8.46576L6.23268 9.52396ZM8.3803 10.7409C8.3803 10.8996 7.75173 11.7462 7.12316 11.7462C6.80888 11.7462 6.70411 11.4816 6.70411 11.3229C6.70411 11.0584 6.86126 10.688 7.64697 10.688C7.80411 10.7409 8.3803 10.7409 8.3803 10.7409Z" fill="#DCE5E5"/>
<path d="M8.90454 12.5395C8.90454 12.5395 9.21883 12.6453 10.1093 12.6453C10.3712 12.6453 11.6807 12.6982 11.6807 11.2697C11.6807 9.94691 10.4236 10.2115 10.4236 9.68236C10.4236 9.41781 10.6331 9.31199 10.9998 9.31199C11.1569 9.31199 11.7331 9.3649 11.7331 9.3649L11.8903 8.41252C11.8903 8.41252 11.5236 8.3067 10.895 8.3067C10.1093 8.3067 9.8474 8.62416 9.8474 9.68236C9.8474 10.8993 10.6331 10.7935 10.6331 11.2697C10.6331 11.5871 10.2664 11.64 10.0045 11.64" fill="#DCE5E5"/>
<path d="M30.7474 8.94207C30.7474 8.94207 30.3283 8.41297 29.7522 8.41297C28.8093 8.41297 28.495 9.57699 28.495 10.9526C28.495 11.7992 28.3902 12.6987 29.2807 12.6987C29.9093 12.6987 30.276 12.2754 30.276 12.2754L30.2236 12.6458H31.2712L32.0569 7.56641L30.7474 8.94207ZM30.695 10.3177C30.695 10.8997 30.2236 11.6405 29.6474 11.6405C29.2807 11.6405 29.0712 11.323 29.0712 10.7939C29.0712 9.94736 29.4379 9.41826 29.9093 9.41826C30.276 9.41826 30.695 9.68281 30.695 10.3177Z" fill="#DCE5E5"/>
<path d="M1.93787 12.593L2.56644 8.78345L2.6712 12.593H3.40453L4.76644 8.78345L4.19025 12.593H5.29025L6.12834 7.51361H4.81882L3.35215 10.6353L3.29977 7.51361H2.72358L0.942627 12.593H1.93787Z" fill="#DCE5E5"/>
<path d="M17.0762 12.5927H18.1762C18.4905 10.8467 18.5428 9.41814 19.2762 9.68269C19.3809 8.99486 19.5381 8.73031 19.6428 8.46576C19.6428 8.46576 19.5905 8.46576 19.4333 8.46576C18.9619 8.46576 18.5952 9.10068 18.5952 9.10068L18.7 8.51867" fill="#DCE5E5"/>
<path d="M23.2569 9.52396C23.2569 9.52396 23.7283 9.31232 24.4092 9.31232C24.7759 9.31232 25.0902 9.36523 25.0902 9.68269C25.0902 9.89433 25.0378 9.94724 25.0378 9.94724C25.0378 9.94724 24.7235 9.94724 24.5664 9.94724C23.6759 9.94724 22.6807 10.3176 22.6807 11.5345C22.6807 12.4869 23.3092 12.6986 23.6759 12.6986C24.4092 12.6986 24.7235 12.2224 24.7759 12.2224L24.7235 12.6457H25.6664L26.0854 9.7356C26.0854 8.51867 25.0378 8.46576 24.6188 8.46576L23.2569 9.52396ZM25.4045 10.7409C25.4045 10.8996 24.7759 11.7462 24.1473 11.7462C23.833 11.7462 23.7283 11.4816 23.7283 11.3229C23.7283 11.0584 23.8854 10.688 24.6711 10.688C24.8807 10.7409 25.4045 10.7409 25.4045 10.7409Z" fill="#DCE5E5"/>
<path d="M25.876 12.5927H26.976C27.2903 10.8467 27.3426 9.41814 28.076 9.68269C28.1807 8.99486 28.3379 8.73031 28.4426 8.46576C28.4426 8.46576 28.3903 8.46576 28.2331 8.46576C27.7617 8.46576 27.395 9.10068 27.395 9.10068L27.4998 8.51867" fill="#DCE5E5"/>
</svg>
