<svg width="34" height="31" viewBox="0 0 34 31" fill="none" xmlns="http://www.w3.org/2000/svg">
<path d="M31.2801 23.2985V0H21.3623H15.2972H5.98904L5.97509 16.0551H0V30.3243H8.04763V28.7897H31.2619C32.7717 28.7897 34 27.558 34 26.044C33.9999 24.536 32.7815 23.3085 31.2801 23.2985ZM5.96805 19.7558V28.2388H2.07957V18.1405H5.96805V19.7558ZM17.3768 2.08544H19.2827V4.85305H17.3768V2.08544ZM8.06688 2.08544H15.2972V6.93849H21.3623V2.08544H29.2006V23.2981H18.5067C18.2653 23.2981 18.069 23.1012 18.069 22.8592C18.069 22.6172 18.2653 22.4203 18.5067 22.4203H22.2292C23.8067 22.4203 25.0902 21.1333 25.0902 19.5513C25.0902 18.1387 24.0392 16.9184 22.6454 16.7128L19.4071 16.2353C16.3677 15.7872 14.4415 16.2235 11.9504 17.1853L8.05227 18.8604L8.06688 2.08544ZM31.2618 26.7042H8.04763V23.8114H8.04802L8.05041 21.1297L12.7156 19.1243C15.2581 18.1444 16.7534 17.9515 19.1046 18.2984L22.3429 18.7758C22.7236 18.832 23.0107 19.1653 23.0107 19.5511C23.0107 19.9832 22.6601 20.3346 22.2293 20.3346H18.5067C17.1187 20.3346 15.9894 21.467 15.9894 22.8589C15.9894 24.2509 17.1187 25.3833 18.5067 25.3833H31.2618C31.625 25.3833 31.9204 25.6796 31.9204 26.0438C31.9204 26.408 31.625 26.7042 31.2618 26.7042Z" fill="#EE273C"/>
</svg>
