<svg width="34" height="34" viewBox="0 0 34 34" fill="none" xmlns="http://www.w3.org/2000/svg">
<path d="M21.307 17.9961C21.6052 17.3676 21.8088 16.6968 21.9085 16.0039H21.9805C24.1775 16.0039 25.9648 14.2165 25.9648 12.0195C25.9648 10.5614 25.1919 9.26414 23.9727 8.56634V6.97266C23.9727 3.12793 20.8447 0 17 0H13.0156C9.1709 0 6.04297 3.12793 6.04297 6.97266V8.56634C4.82375 9.26414 4.05078 10.5614 4.05078 12.0195C4.05078 14.2165 5.83817 16.0039 8.03516 16.0039H8.10661C8.36081 17.7733 9.2816 19.3302 10.6058 20.411L10.2256 21.8977L6.02345 22.443C2.70918 22.873 0.133941 25.6215 0.00524609 28.9509C0.00172656 29.0413 0 29.1326 0 29.2223V34H16.0039H28.9531H34V17.9961H21.307ZM23.9727 19.9883H25.9648V23.9727H23.9727V19.9883ZM23.9727 12.0195C23.9727 13.118 23.079 14.0117 21.9805 14.0117V11.436L23.0653 10.3511C23.6171 10.7133 23.9727 11.3394 23.9727 12.0195ZM8.03516 14.0117C6.93666 14.0117 6.04297 13.118 6.04297 12.0195C6.04297 11.3394 6.39851 10.7133 6.95028 10.3511L8.03516 11.436V14.0117ZM8.03516 8.03516V6.97266C8.03516 4.22643 10.2694 1.99219 13.0156 1.99219H17C19.7462 1.99219 21.9805 4.22643 21.9805 6.97266V8.03516H8.03516ZM20.5717 10.0273L18.5795 12.0195H11.436L9.44383 10.0273H20.5717ZM16.0039 32.0078H1.99219V29.2223C1.99219 26.775 3.89446 24.7282 6.27984 24.4186L8.76748 24.0958C9.94301 26.4544 12.348 27.957 15.0078 27.957C15.3431 27.957 15.6755 27.9319 16.0039 27.8849V32.0078ZM16.0039 25.8646C15.678 25.9306 15.345 25.9648 15.0078 25.9648C13.3491 25.9648 11.829 25.1465 10.9108 23.8177L11.8212 23.6996L12.3912 21.4705C13.1996 21.799 14.0828 21.9805 15.0078 21.9805C15.3431 21.9805 15.6755 21.9554 16.0039 21.9084V25.8646ZM16.0039 19.888C15.678 19.9541 15.345 19.9883 15.0078 19.9883C12.2616 19.9883 10.0273 17.754 10.0273 15.0078V13.4282L10.6109 14.0117H19.4048L19.9883 13.4282V15.0078C19.9883 16.0915 19.6368 17.1373 18.9919 17.9961H16.0039V19.888ZM32.0078 32.0078H28.9531H17.9961V19.9883H21.9805V25.9648H27.957V19.9883H32.0078V32.0078Z" fill="#EE273C"/>
</svg>
