<svg width="40" height="29" viewBox="0 0 40 29" fill="none" xmlns="http://www.w3.org/2000/svg">
<path d="M0 0V28.125H40V0H0ZM37.6562 25.7812H2.34375V11.7188H37.6562V25.7812ZM37.6562 9.375H2.34375V7.03125H37.6562V9.375ZM37.6562 4.6875H2.34375V2.34375H37.6562V4.6875Z" fill="#EE273C"/>
<path d="M14.0625 14.0625C13.2096 14.0625 12.41 14.2926 11.7202 14.6923C11.0124 14.2828 10.2057 14.0625 9.375 14.0625C6.79031 14.0625 4.6875 16.1653 4.6875 18.75C4.6875 21.3347 6.79031 23.4375 9.375 23.4375C10.2057 23.4375 11.0124 23.2172 11.7202 22.8077C12.41 23.2074 13.2096 23.4375 14.0625 23.4375C16.6472 23.4375 18.75 21.3347 18.75 18.75C18.75 16.1653 16.6472 14.0625 14.0625 14.0625ZM9.96234 21.0186C9.77211 21.0677 9.575 21.0937 9.375 21.0937C8.08266 21.0937 7.03125 20.0423 7.03125 18.75C7.03125 17.4577 8.08266 16.4062 9.375 16.4062C9.575 16.4062 9.77211 16.4323 9.96234 16.4814C9.58867 17.1541 9.375 17.9274 9.375 18.75C9.375 19.5726 9.58867 20.3459 9.96234 21.0186ZM14.0625 21.0937C12.7702 21.0937 11.7188 20.0423 11.7188 18.75C11.7188 17.4577 12.7702 16.4062 14.0625 16.4062C15.3548 16.4062 16.4062 17.4577 16.4062 18.75C16.4062 20.0423 15.3548 21.0937 14.0625 21.0937Z" fill="#EE273C"/>
<path d="M25.8594 21.0938H23.5156V23.4375H25.8594V21.0938Z" fill="#EE273C"/>
<path d="M30.5469 21.0938H28.2031V23.4375H30.5469V21.0938Z" fill="#EE273C"/>
<path d="M35.3125 21.0938H32.9688V23.4375H35.3125V21.0938Z" fill="#EE273C"/>
</svg>
