<svg width="40" height="34" viewBox="0 0 40 34" fill="none" xmlns="http://www.w3.org/2000/svg">
<path d="M36.7749 15.8667V9.06667H34.486V4.53333H32.1971V0H5.72224C2.567 0 0 2.54207 0 5.66667V28.3333C0 31.4579 2.567 34 5.72224 34H36.7749V27.2H39.0638V15.8667H36.7749ZM5.72224 2.26667H29.9082V4.53333H4.57779V8.87173C3.24573 8.40389 2.2889 7.14416 2.2889 5.66667C2.2889 3.79191 3.82909 2.26667 5.72224 2.26667ZM32.1971 6.8V9.06667H6.86669V6.8H32.1971ZM34.486 31.7333H5.72224C3.82909 31.7333 2.2889 30.2081 2.2889 28.3333V10.1969C3.24596 10.91 4.43504 11.3333 5.72224 11.3333H34.486V15.8667H31.0527C27.8974 15.8667 25.3305 18.4087 25.3305 21.5333C25.3305 24.6579 27.8974 27.2 31.0527 27.2H34.486V31.7333ZM36.7749 24.9333H31.0527C29.1595 24.9333 27.6194 23.4081 27.6194 21.5333C27.6194 19.6586 29.1595 18.1333 31.0527 18.1333H36.7749V24.9333Z" fill="#EE273C"/>
<path d="M32.1971 20.4004H29.9082V22.6671H32.1971V20.4004Z" fill="#EE273C"/>
</svg>
