<svg width="122" height="122" viewBox="0 0 122 122" fill="none" xmlns="http://www.w3.org/2000/svg">
<circle cx="61" cy="61" r="61" fill="white" fill-opacity="0.4"/>
<path d="M71.333 59.8929L52.8847 47.2754C52.3112 46.8521 50.7818 46.8521 50.6589 48.4498V73.6848C50.7955 75.2824 52.3522 75.3097 52.8847 74.8591L71.333 62.2416C71.811 61.9549 72.4664 60.7805 71.333 59.8929ZM53.5129 70.9947V51.1399L68.0011 61.0673L53.5129 70.9947Z" fill="white"/>
<path d="M61 0C27.3629 0 0 27.3629 0 61C0 94.6371 27.3629 122 61 122C94.6371 122 122 94.6371 122 61C122 27.3629 94.6371 0 61 0ZM61 116.796C30.2261 116.796 5.20367 91.7739 5.20367 61C5.20367 30.2261 30.2261 5.20367 61 5.20367C91.7739 5.20367 116.796 30.2261 116.796 61C116.796 91.7739 91.7739 116.796 61 116.796Z" fill="white"/>
</svg>
