<svg width="22" height="22" viewBox="0 0 22 22" fill="none" xmlns="http://www.w3.org/2000/svg">
<path d="M14.6919 2.51706C11.3356 -0.839018 5.87297 -0.839018 2.51668 2.51706C-0.838892 5.87386 -0.838892 11.3354 2.51668 14.6922C5.50555 17.6801 10.1606 18.0002 13.5147 15.6671C13.5853 16.001 13.7468 16.3197 14.0065 16.5794L18.8944 21.4669C19.6066 22.1777 20.7577 22.1777 21.4663 21.4669C22.1779 20.7554 22.1779 19.6044 21.4663 18.8951L16.5785 14.0061C16.3202 13.7486 16.0008 13.5864 15.6668 13.5158C18.0016 10.1612 17.6815 5.50718 14.6919 2.51706ZM13.1487 13.1491C10.6429 15.6547 6.56489 15.6547 4.05986 13.1491C1.55555 10.6435 1.55555 6.56646 4.05986 4.06086C6.56489 1.55599 10.6429 1.55599 13.1487 4.06086C15.6545 6.56646 15.6545 10.6435 13.1487 13.1491Z" fill="white"/>
</svg>
