<svg width="25" height="23" viewBox="0 0 25 23" fill="none" xmlns="http://www.w3.org/2000/svg">
<path d="M10.4826 18.628C9.27026 18.628 8.28394 19.6086 8.28394 20.814C8.28394 22.0194 9.27026 23 10.4826 23C11.695 23 12.6813 22.0194 12.6813 20.814C12.6813 19.6086 11.6949 18.628 10.4826 18.628ZM10.4826 21.7793C9.94717 21.7793 9.51157 21.3462 9.51157 20.8139C9.51157 20.2815 9.94722 19.8485 10.4826 19.8485C11.018 19.8485 11.4537 20.2816 11.4537 20.8139C11.4537 21.3463 11.018 21.7793 10.4826 21.7793Z" fill="white"/>
<path d="M18.195 18.628C16.9827 18.628 15.9963 19.6086 15.9963 20.814C15.9963 22.0194 16.9827 23 18.195 23C19.4074 23 20.3937 22.0194 20.3937 20.814C20.3937 19.6086 19.4073 18.628 18.195 18.628ZM18.195 21.7793C17.6596 21.7793 17.224 21.3462 17.224 20.8139C17.224 20.2815 17.6596 19.8485 18.195 19.8485C18.7305 19.8485 19.1661 20.2816 19.1661 20.8139C19.1661 21.3463 18.7304 21.7793 18.195 21.7793Z" fill="white"/>
<path d="M18.7361 7.11896H9.93975C9.60073 7.11896 9.32593 7.39218 9.32593 7.72924C9.32593 8.06629 9.60078 8.33951 9.93975 8.33951H18.7361C19.0751 8.33951 19.3499 8.06629 19.3499 7.72924C19.3499 7.39213 19.0751 7.11896 18.7361 7.11896Z" fill="white"/>
<path d="M18.2575 10.2881H10.4188C10.0797 10.2881 9.80493 10.5613 9.80493 10.8984C9.80493 11.2354 10.0797 11.5086 10.4188 11.5086H18.2575C18.5965 11.5086 18.8713 11.2354 18.8713 10.8984C18.8713 10.5614 18.5965 10.2881 18.2575 10.2881Z" fill="white"/>
<path d="M24.7237 4.39978C24.4896 4.11413 24.1428 3.95033 23.7721 3.95033H4.65227L4.26614 2.08668C4.18552 1.69792 3.91882 1.37149 3.55256 1.21337L0.858372 0.0506837C0.547337 -0.0836447 0.185862 0.0582568 0.0509497 0.367401C-0.0841089 0.676643 0.0586158 1.03608 0.369505 1.17022L3.06374 2.33295L6.03377 16.6669C6.15076 17.2314 6.65642 17.6411 7.23616 17.6411H21.9415C22.2806 17.6411 22.5554 17.3679 22.5554 17.0308C22.5554 16.6938 22.2806 16.4205 21.9415 16.4205H7.23621L6.87493 14.6769H22.0552C22.6349 14.6769 23.1406 14.2672 23.2576 13.7027L24.9745 5.41702C25.0493 5.05622 24.9579 4.68538 24.7237 4.39978ZM22.0552 13.4565H6.62205L4.9052 5.17084L23.7721 5.17089L22.0552 13.4565Z" fill="white"/>
</svg>
