<svg width="24" height="24" viewBox="0 0 24 24" fill="none" xmlns="http://www.w3.org/2000/svg">
<path d="M22.5256 12.6738C22.5397 12.4497 22.5469 12.2241 22.5469 12C22.5469 6.15857 17.8156 1.40625 12 1.40625C11.7757 1.40625 11.5497 1.41339 11.3254 1.42749C10.1067 0.505005 8.59314 0 7.03125 0C3.15417 0 0 3.17523 0 7.07812C0 8.61163 0.505005 10.1087 1.42749 11.3254C1.41339 11.5497 1.40625 11.7757 1.40625 12C1.40625 17.8303 6.17029 22.5938 12 22.5938C12.2243 22.5938 12.4503 22.5866 12.6746 22.5725C13.8913 23.495 15.3884 24 16.9219 24C20.8092 24 24 20.8083 24 16.9219C24 15.42 23.4783 13.9224 22.5256 12.6738ZM16.9219 22.5938C14.5908 22.5938 13.2328 21.1908 13.1199 21.1243C12.9283 21.1386 12.5561 21.1875 12 21.1875C6.93402 21.1875 2.8125 17.066 2.8125 12C2.8125 11.4423 2.86176 11.0667 2.87585 10.8803C2.81067 10.7697 1.40625 9.41034 1.40625 7.07812C1.40625 3.95068 3.92963 1.40625 7.03125 1.40625C9.42151 1.40625 10.7675 2.80994 10.8801 2.87567C11.0662 2.86176 11.4426 2.8125 12 2.8125C17.0402 2.8125 21.1406 6.93402 21.1406 12C21.1406 12.5577 21.0914 12.9333 21.0773 13.1197C21.1428 13.2292 22.5938 14.6578 22.5938 16.9219C22.5938 20.0493 20.0493 22.5938 16.9219 22.5938Z" fill="#282E42"/>
<path d="M12 9.89033C11.3055 9.89033 10.628 9.71491 10.1874 9.42084C10.0496 9.32874 9.95782 9.24689 9.90125 9.1872C9.95782 9.12732 10.0499 9.04529 10.1882 8.95301C11.4335 8.12208 13.6194 8.59962 14.083 9.16981C14.8015 10.0538 15.5625 9.86963 15.7597 9.89033C16.5571 9.89033 17.2683 9.443 17.6157 8.72285C17.9612 8.00672 17.8696 7.1767 17.3765 6.55689C15.2344 3.86268 10.424 3.69147 7.80048 5.44361C6.41785 6.36463 5.625 7.72913 5.625 9.1872C5.625 10.6453 6.41766 12.0096 7.79901 12.9297C8.92108 13.6791 10.4522 14.1091 12 14.1091C12.6945 14.1091 13.372 14.2845 13.8126 14.5786C13.9528 14.6723 14.0361 14.7569 14.0797 14.8122C14.0361 14.8675 13.9526 14.9525 13.8118 15.0464C12.5883 15.8625 10.3533 15.424 9.8703 14.8294C9.05145 13.8221 7.05872 13.7817 6.33746 15.2766C5.99213 15.9925 6.08368 16.8225 6.5766 17.4425C7.8327 19.0223 9.99719 19.7341 12 19.7341C13.5401 19.7341 15.0152 19.3155 16.1526 18.556C17.5353 17.6348 18.3281 16.2703 18.3281 14.8122C18.3281 12.2593 15.8002 9.89033 12 9.89033ZM15.3723 17.3859C14.463 17.9933 13.2653 18.3278 12 18.3278C10.424 18.3278 8.65375 17.7954 7.67725 16.5674C7.45184 16.284 7.55109 15.9976 7.604 15.8876C7.86108 15.3547 8.59076 15.4849 8.77899 15.7166C9.76501 16.9298 12.8196 17.3989 14.5926 16.2161C15.1879 15.8185 15.5156 15.32 15.5156 14.8122C15.5156 14.3043 15.188 13.8059 14.5931 13.4089C13.9208 12.9601 12.9758 12.7028 12 12.7028C10.7232 12.7028 9.47681 12.3593 8.57941 11.7598C7.59558 11.1045 7.03125 10.1668 7.03125 9.1872C7.03125 8.20759 7.59576 7.26972 8.58087 6.61347C10.6229 5.24988 14.6169 5.34565 16.2759 7.43195C16.5013 7.71558 16.4022 8.00178 16.3491 8.11182C16.307 8.19916 16.14 8.48408 15.7597 8.48408C15.4127 8.46924 15.3649 8.51758 15.1741 8.28303C14.2048 7.09028 11.2024 6.586 9.40741 7.78333C8.96503 8.07886 8.4375 8.56226 8.4375 9.1872C8.4375 9.81251 8.96466 10.2955 9.40686 10.5905C10.0792 11.0393 11.0242 11.2966 12 11.2966C13.2653 11.2966 14.4631 11.6313 15.3737 12.2396C16.3575 12.8949 16.9219 13.8326 16.9219 14.8122C16.9219 15.7918 16.3574 16.7297 15.3723 17.3859Z" fill="#282E42"/>
</svg>
