<svg width="14" height="24" viewBox="0 0 14 24" fill="none" xmlns="http://www.w3.org/2000/svg">
<path d="M11.2 0H2.8C1.25608 0 0 1.26169 0 2.8125V21.1875C0 22.7383 1.25608 24 2.8 24H11.2C12.7439 24 14 22.7383 14 21.1875V2.8125C14 1.26169 12.7439 0 11.2 0ZM12.6 21.1875C12.6 21.9629 11.972 22.5938 11.2 22.5938H2.8C2.02804 22.5938 1.4 21.9629 1.4 21.1875V18.375H12.6V21.1875ZM12.6 16.9688H1.4V4.21875H12.6V16.9688ZM1.4 2.8125C1.4 2.03709 2.02804 1.40625 2.8 1.40625H11.2C11.972 1.40625 12.6 2.03709 12.6 2.8125H1.4Z" fill="#282E42"/>
<path d="M8.4001 19.7812H5.6001V21.1875H8.4001V19.7812Z" fill="#282E42"/>
</svg>
