<svg width="13" height="22" viewBox="0 0 13 22" fill="none" xmlns="http://www.w3.org/2000/svg">
<path d="M6.50006 17.9667C5.83851 17.9667 5.30029 18.5142 5.30029 19.1872C5.30029 19.8602 5.83851 20.4076 6.50006 20.4076C7.16162 20.4076 7.69979 19.8602 7.69979 19.1872C7.69979 18.5142 7.16158 17.9667 6.50006 17.9667ZM6.50006 19.5624C6.29664 19.5624 6.13114 19.3941 6.13114 19.1872C6.13114 18.9803 6.29664 18.8119 6.50006 18.8119C6.70345 18.8119 6.86894 18.9803 6.86894 19.1872C6.86885 19.3941 6.70336 19.5624 6.50006 19.5624Z" fill="white"/>
<path d="M8.46792 1.73798H6.33892C6.09672 1.73798 5.90039 1.9377 5.90039 2.18408C5.90039 2.43046 6.09676 2.63018 6.33892 2.63018H8.46792C8.71012 2.63018 8.90645 2.43046 8.90645 2.18408C8.90645 1.9377 8.71012 1.73798 8.46792 1.73798Z" fill="white"/>
<path d="M4.99259 2.66332C5.24685 2.66332 5.45296 2.45365 5.45296 2.195C5.45296 1.93636 5.24685 1.72668 4.99259 1.72668C4.73834 1.72668 4.53223 1.93636 4.53223 2.195C4.53223 2.45365 4.73834 2.66332 4.99259 2.66332Z" fill="white"/>
<path d="M11.6153 0H1.38478C0.621216 0 0 0.631943 0 1.40869V20.5913C0 21.3681 0.621216 22 1.38478 22H11.6152C12.3788 22 13 21.3681 13 20.5913V1.40869C13 0.631943 12.3788 0 11.6153 0ZM12.0769 20.5914C12.0769 20.8503 11.8698 21.0609 11.6153 21.0609H1.38478C1.13024 21.0609 0.923186 20.8503 0.923186 20.5914V1.40869C0.923186 1.14976 1.13024 0.939127 1.38478 0.939127H11.6152C11.8698 0.939127 12.0768 1.14976 12.0768 1.40869V20.5914H12.0769Z" fill="white"/>
<path d="M7.27805 8.81735C7.09773 8.63404 6.80556 8.63404 6.6252 8.81735L4.40788 11.073C4.22764 11.2563 4.22764 11.5537 4.40792 11.7371C4.49806 11.8288 4.6162 11.8747 4.7343 11.8747C4.8524 11.8747 4.97059 11.8288 5.06069 11.7371L7.27801 9.48148C7.45828 9.29809 7.45828 9.00074 7.27805 8.81735Z" fill="white"/>
<path d="M8.59245 10.1245C8.41217 9.94123 8.11996 9.94123 7.93959 10.1245L7.05628 11.0231C6.87609 11.2065 6.87609 11.5038 7.05632 11.6872C7.14646 11.7789 7.26461 11.8248 7.38271 11.8248C7.50081 11.8248 7.61895 11.7789 7.70909 11.6872L8.59241 10.7887C8.77273 10.6053 8.77273 10.3079 8.59245 10.1245Z" fill="white"/>
<path d="M10.6974 3.47583H2.30312C2.07368 3.47583 1.8877 3.66502 1.8877 3.89843V16.8439C1.8877 17.0773 2.07368 17.2665 2.30312 17.2665H10.6974C10.9268 17.2665 11.1128 17.0773 11.1128 16.8439V3.89843C11.1128 3.66506 10.9268 3.47583 10.6974 3.47583ZM10.2819 16.4213H2.7185V4.32107H10.2819V16.4213Z" fill="white"/>
</svg>
