<svg width="165" height="36" viewBox="0 0 165 36" fill="none" xmlns="http://www.w3.org/2000/svg">
<rect width="165" height="36" rx="6" fill="#73A1FB"/>
<path d="M70.7675 15.256H68.3675V22H66.3155V15.256H63.9155V13.504H70.7675V15.256ZM83.1281 13.504L80.7041 22H78.6761L76.9961 16.252H76.9601L75.2801 22H73.2401L70.8281 13.504H73.0361L74.3801 19.156H74.4161L75.9281 13.504H78.0641L79.5881 19.156H79.6241L80.9921 13.504H83.1281ZM86.0728 22H84.0088V13.504H86.0728V22ZM93.8651 15.256H91.4651V22H89.4131V15.256H87.0131V13.504H93.8651V15.256ZM100.838 15.256H98.4378V22H96.3858V15.256H93.9858V13.504H100.838V15.256ZM107.702 22H101.774V13.504H107.486V15.244H103.754V16.84H107.282V18.484H103.754V20.248H107.702V22ZM116.012 22H113.612L111.776 18.628H111.08V22H109.064V13.504H112.304C112.736 13.504 113.136 13.548 113.504 13.636C113.872 13.724 114.216 13.864 114.536 14.056C114.856 14.248 115.104 14.516 115.28 14.86C115.464 15.204 115.556 15.608 115.556 16.072C115.556 16.632 115.4 17.112 115.088 17.512C114.776 17.912 114.344 18.196 113.792 18.364L116.012 22ZM113.528 16.108C113.528 15.476 113.072 15.16 112.16 15.16H111.068V17.14H112.04C113.032 17.14 113.528 16.796 113.528 16.108Z" fill="white"/>
<path d="M28.6601 13.3849C28.4245 13.487 28.1822 13.5732 27.9346 13.6432C28.2277 13.3193 28.4512 12.9382 28.5876 12.5212C28.6182 12.4278 28.5865 12.3255 28.5078 12.2643C28.4293 12.2031 28.3202 12.1958 28.2337 12.2459C27.708 12.5505 27.1408 12.7695 26.5461 12.8975C25.947 12.3255 25.1333 12 24.2921 12C22.5166 12 21.072 13.4115 21.072 15.1463C21.072 15.283 21.0809 15.4189 21.0984 15.5529C18.8951 15.3639 16.8467 14.3057 15.4401 12.6197C15.39 12.5596 15.3128 12.5272 15.2337 12.5334C15.1546 12.5395 15.0835 12.5831 15.0435 12.6501C14.7582 13.1284 14.6074 13.6755 14.6074 14.2321C14.6074 14.9903 14.8844 15.7096 15.3738 16.2717C15.225 16.2213 15.0806 16.1584 14.9428 16.0836C14.8688 16.0434 14.7785 16.044 14.705 16.0852C14.6315 16.1264 14.5854 16.2021 14.5834 16.2849C14.583 16.2988 14.583 16.3128 14.583 16.3269C14.583 17.4585 15.2064 18.4774 16.1594 19.0327C16.0775 19.0247 15.9957 19.0131 15.9144 18.9979C15.8306 18.9823 15.7444 19.011 15.6879 19.0735C15.6313 19.1359 15.6125 19.2229 15.6386 19.3023C15.9914 20.3784 16.8996 21.1699 17.9975 21.4112C17.0868 21.9685 16.0455 22.2604 14.9524 22.2604C14.7243 22.2604 14.4949 22.2473 14.2704 22.2214C14.1588 22.2084 14.0522 22.2728 14.0142 22.3764C13.9762 22.4801 14.0165 22.5957 14.1113 22.6551C15.5157 23.535 17.1395 24 18.8072 24C22.0856 24 24.1365 22.4894 25.2796 21.2222C26.7051 19.642 27.5226 17.5505 27.5226 15.4839C27.5226 15.3976 27.5213 15.3104 27.5186 15.2235C28.081 14.8095 28.5652 14.3084 28.9592 13.7325C29.019 13.6451 29.0125 13.5294 28.9432 13.4489C28.874 13.3683 28.7586 13.3422 28.6601 13.3849Z" fill="white"/>
</svg>
