<svg width="17" height="22" viewBox="0 0 17 22" fill="none" xmlns="http://www.w3.org/2000/svg">
<path d="M13.6665 14.2855C13.6487 14.2836 11.078 14.3583 10.6958 11.6445C11.1205 11.3526 11.5119 10.9736 11.8568 10.5137C12.5276 9.61914 12.9599 8.49688 13.1139 7.28297C13.1668 7.23584 13.2106 7.17719 13.24 7.10805C13.5186 6.45428 13.6599 5.75621 13.6599 5.03313C13.6599 2.25787 11.5348 0 8.92253 0C8.23934 0 7.57652 0.155031 6.95052 0.461183C6.71171 0.479144 6.4777 0.520522 6.25328 0.584374C5.18041 0.889752 4.30736 1.67337 3.79489 2.79099C3.29738 3.87612 3.19933 5.15353 3.51888 6.38798C3.5864 6.64876 3.67224 6.90502 3.77404 7.14986C3.80161 7.21607 3.8427 7.27258 3.89203 7.31907C4.14143 9.21377 5.05658 10.7836 6.30441 11.6407C5.921 14.3591 3.35121 14.2837 3.3335 14.2856C1.48489 14.3474 0 15.8471 0 17.683V21.5047C0 21.7782 0.225112 22 0.502828 22H4.91831H12.0816H16.4971C16.7748 22 17 21.7782 17 21.5047V17.683C17 15.847 15.5152 14.3472 13.6665 14.2855ZM6.53248 1.53617C6.71598 1.48392 6.90978 1.45294 7.1085 1.44413C7.18226 1.44087 7.25436 1.42166 7.31974 1.3878C7.82881 1.12432 8.3681 0.990729 8.92257 0.990729C10.9802 0.990729 12.6543 2.80414 12.6543 5.03313C12.6543 5.10004 12.6523 5.1666 12.6494 5.2329C12.2503 4.83363 11.6958 4.58549 11.0834 4.58549H7.6563C7.45238 4.58549 7.25885 4.52241 7.09655 4.40304C6.95798 4.30116 6.85085 4.16422 6.78686 4.00704C6.68776 3.76393 6.44342 3.61186 6.17743 3.62832C5.91049 3.64508 5.68586 3.82769 5.61843 4.08288C5.41983 4.83466 5.02383 5.52715 4.48052 6.0887C3.97499 4.03914 4.88735 2.0044 6.53248 1.53617ZM6.095 10.1037C5.44068 9.31621 5.01218 8.25286 4.87635 7.08871C5.51086 6.53162 6.01247 5.83837 6.33904 5.0694C6.38859 5.11443 6.44062 5.15701 6.49497 5.19702C6.8324 5.44508 7.23395 5.57626 7.65634 5.57626H11.0834C11.5683 5.57626 11.9863 5.86277 12.1728 6.27282C12.1728 6.27635 12.1722 6.2797 12.1722 6.28322C12.1722 9.07954 10.5252 11.3545 8.50074 11.3545C7.61966 11.3546 6.76523 10.9103 6.095 10.1037ZM7.25039 12.1272C7.64901 12.2693 8.06831 12.3453 8.50074 12.3453C8.92972 12.3453 9.34885 12.2717 9.75009 12.1298C9.9342 13.0747 10.4675 13.8983 11.2125 14.4653L8.57206 18.1695C8.55483 18.1937 8.53088 18.206 8.50087 18.206C8.47091 18.206 8.44696 18.1937 8.42978 18.1696L5.78871 14.4645C6.5337 13.8968 7.06685 13.0727 7.25039 12.1272ZM15.9943 21.0092H12.0816H4.91831H1.00566V17.6829C1.00566 16.3542 2.10295 15.2733 3.4517 15.2733C3.47002 15.2733 4.27918 15.2539 4.91853 14.9677L7.60666 18.7389C7.81097 19.0255 8.14526 19.1967 8.50083 19.1967C8.50083 19.1967 8.50083 19.1967 8.50087 19.1967C8.8564 19.1967 9.19073 19.0255 9.39504 18.7389L12.0827 14.9683C12.8119 15.2733 13.5299 15.2733 13.5483 15.2733C14.897 15.2733 15.9943 16.3543 15.9943 17.6829V21.0092Z" fill="white"/>
</svg>
