<svg width="26" height="8" viewBox="0 0 26 8" fill="none" xmlns="http://www.w3.org/2000/svg">
<path d="M10.6276 0L9.3227 7.98397H11.4084L12.7125 0H10.6276ZM16.9188 3.25222C16.1899 2.89833 15.7431 2.65948 15.7431 2.29753C15.752 1.96844 16.121 1.63128 16.9448 1.63128C17.6224 1.61454 18.1205 1.77112 18.4983 1.9269L18.6876 2.00997L18.9712 0.339521C18.5592 0.182947 17.906 0.0104262 17.0992 0.0104262C15.0395 0.0104262 13.5892 1.06334 13.5802 2.56923C13.5631 3.6805 14.6185 4.29716 15.4083 4.66708C16.2152 5.04656 16.4898 5.29259 16.4898 5.62975C16.4809 6.1474 15.8374 6.38624 15.237 6.38624C14.405 6.38624 13.9581 6.26323 13.2797 5.97479L13.005 5.85177L12.7134 7.58775C13.2033 7.80189 14.1043 7.99036 15.0396 8C17.2285 8 18.6528 6.96304 18.6707 5.35813C18.6778 4.47774 18.1213 3.80343 16.9188 3.25222ZM24.3182 0.0247082H22.7045C22.2073 0.0247082 21.8295 0.165336 21.6142 0.667039L18.5161 7.98397H20.7049L21.3078 6.39982H23.7567L24.0695 7.99036H26L24.3182 0.0247082ZM21.9148 4.80114C21.9571 4.80517 22.755 2.21517 22.755 2.21517L23.3904 4.80114C23.3904 4.80114 22.3268 4.80114 21.9148 4.80114ZM7.57991 0L5.53646 5.42437L5.31386 4.35463C4.93602 3.12035 3.75144 1.77909 2.42944 1.11284L4.30064 7.97599H6.50744L9.78671 0.000875703H7.57991V0Z" fill="#2394BC"/>
<path d="M4.6264 1.0297C4.46715 0.420929 3.9593 0.0103488 3.26956 0.00158691H0.0333283L0 0.149311C2.52449 0.761238 4.64342 2.64416 5.33084 4.41528L4.6264 1.0297Z" fill="#EFC75E"/>
</svg>
