<svg width="223" height="70" viewBox="0 0 223 70" fill="none" xmlns="http://www.w3.org/2000/svg">
<path fill-rule="evenodd" clip-rule="evenodd" d="M69.2915 13.5714H54.0637L44.0481 69.7958H30.5577L40.5733 13.5714H24.528L22.8928 0L75.7301 0.102041L69.2915 13.5714ZM6.54079 32.551L7.86938 25H16.4542L15.1256 32.653L6.54079 32.551ZM13.6948 40.9183L8.58478 69.6937H0L5.10999 40.9183H13.6948Z" fill="white"/>
<path d="M215.54 42.1428H202.969L204.4 33.8776H223L221.876 25.2041H204.093C200.312 25.2041 196.735 28.2653 196.02 32.0408L193.873 43.8775C193.158 47.653 195.713 50.7143 199.494 50.7143H211.758L209.919 61.2244H191.318L192.443 69.8979H210.225C214.007 69.8979 217.584 66.8367 218.299 63.0612L220.445 50.8163L220.548 50.3061L220.854 48.6734C221.57 45 219.117 42.1428 215.54 42.1428Z" fill="white"/>
<path d="M183.551 33.7757L185.084 25.1023H162.907C159.33 25.1023 155.548 28.0615 154.935 31.6329L149.314 63.2655C148.701 66.8369 151.358 69.7961 155.037 69.7961H177.215L178.748 61.1226H158.308L160.147 50.9186H174.353L178.339 43.0614H161.476L163.111 33.6737L183.551 33.7757Z" fill="#FE3940"/>
<path d="M76.0365 69.8981H66.7363L76.8541 50.8165H76.7519C74.7079 50.8165 73.0727 49.5921 72.7661 47.6533L68.4737 25.3064H77.4673L81.0443 43.2655L90.5489 25.3064H99.6447L76.0365 69.8981ZM133.473 50.6125C134.699 51.4288 135.619 52.6533 135.823 54.2859L137.867 70.0002H128.874L126.523 50.9186H118.041L114.668 70.0002H106.083L109.456 50.9186L110.989 42.2451L112.42 33.9798L113.953 25.3064H136.13C139.707 25.3064 142.466 28.1635 141.853 31.837L139.503 44.388C138.992 47.3472 136.334 49.7961 133.473 50.6125ZM132.655 33.9798H120.902L119.471 42.2451H131.224L132.655 33.9798Z" fill="white"/>
</svg>
