<svg width="164" height="164" viewBox="0 0 164 164" fill="none" xmlns="http://www.w3.org/2000/svg">
<path d="M57.5969 128.575L33.129 141.921C31.6932 142.704 30.4028 143.666 29.2021 144.715C43.4676 156.743 61.8827 163.999 82.0029 163.999C101.975 163.999 120.272 156.851 134.497 144.987C133.185 143.88 131.762 142.883 130.184 142.097L103.983 128.999C100.598 127.306 98.4592 123.847 98.4592 120.062V109.783C99.1957 108.945 100.037 107.868 100.938 106.596C104.509 101.552 107.21 96.004 109.083 90.1836C112.443 89.1469 114.919 86.0433 114.919 82.3549V71.3823C114.919 68.9688 113.845 66.812 112.177 65.302V49.4404C112.177 49.4404 115.435 24.7568 82.006 24.7568C48.5766 24.7568 51.835 49.4404 51.835 49.4404V65.302C50.164 66.812 49.0933 68.9688 49.0933 71.3823V82.3549C49.0933 85.245 50.6127 87.7885 52.8871 89.2583C55.6288 101.193 62.808 109.783 62.808 109.783V119.809C62.8049 123.46 60.8059 126.824 57.5969 128.575Z" fill="#E7ECED"/>
<path d="M83.4048 0.0122108C38.1236 -0.761374 0.785834 35.3186 0.0122193 80.5981C-0.427194 106.272 11.0161 129.346 29.2363 144.691C30.4277 143.651 31.7057 142.698 33.126 141.925L57.5939 128.579C60.8029 126.828 62.8019 123.464 62.8019 119.806V109.781C62.8019 109.781 55.6196 101.191 52.8811 89.2561C50.6097 87.7862 49.0872 85.2458 49.0872 82.3526V71.3801C49.0872 68.9665 50.161 66.8097 51.8289 65.2997V49.4381C51.8289 49.4381 48.5705 24.7546 81.9999 24.7546C115.429 24.7546 112.171 49.4381 112.171 49.4381V65.2997C113.842 66.8097 114.913 68.9665 114.913 71.3801V82.3526C114.913 86.041 112.437 89.1447 109.076 90.1813C107.204 96.0017 104.503 101.55 100.932 106.594C100.031 107.865 99.1896 108.942 98.4531 109.781V120.06C98.4531 123.845 100.591 127.307 103.977 128.997L130.178 142.095C131.75 142.881 133.17 143.874 134.479 144.979C152.148 130.244 163.564 108.212 163.988 83.4016C164.767 38.1221 128.689 0.785796 83.4048 0.0122108Z" fill="#556080"/>
</svg>
